<?xml version="1.0" encoding="UTF-8" standalone="no"?>
<!-- Created with Inkscape (http://www.inkscape.org/) -->

<svg
   width="64"
   height="64"
   viewBox="0 0 16.933333 16.933333"
   version="1.1"
   id="svg1"
   inkscape:version="1.3 (0e150ed6c4, 2023-07-21)"
   sodipodi:docname="pardus-gnome-shortcuts.svg"
   xmlns:inkscape="http://www.inkscape.org/namespaces/inkscape"
   xmlns:sodipodi="http://sodipodi.sourceforge.net/DTD/sodipodi-0.dtd"
   xmlns="http://www.w3.org/2000/svg"
   xmlns:svg="http://www.w3.org/2000/svg">
  <sodipodi:namedview
     id="namedview1"
     pagecolor="#ffffff"
     bordercolor="#000000"
     borderopacity="0.25"
     inkscape:showpageshadow="2"
     inkscape:pageopacity="0.0"
     inkscape:pagecheckerboard="0"
     inkscape:deskcolor="#d1d1d1"
     inkscape:document-units="px"
     inkscape:zoom="6.592312"
     inkscape:cx="28.518068"
     inkscape:cy="35.875122"
     inkscape:window-width="1920"
     inkscape:window-height="1127"
     inkscape:window-x="0"
     inkscape:window-y="0"
     inkscape:window-maximized="1"
     inkscape:current-layer="layer1" />
  <defs
     id="defs1">
    <linearGradient
       id="SVGID_00000129901450951144020920000007753056098303935627_"
       gradientUnits="userSpaceOnUse"
       x1="-434.02811"
       y1="-74.135002"
       x2="-434.02811"
       y2="-49.8008"
       gradientTransform="matrix(1,0,0,-1,0,-121.5918)">
      <stop
         offset="0"
         style="stop-color:#27AFD9"
         id="stop80" />
      <stop
         offset="1"
         style="stop-color:#42BDD9"
         id="stop81" />
    </linearGradient>
    <linearGradient
       id="SVGID_00000178168103916819199540000013946339910692155535_"
       gradientUnits="userSpaceOnUse"
       x1="-195.60921"
       y1="-62.849098"
       x2="-195.60921"
       y2="-57.944199"
       gradientTransform="matrix(1,0,0,-1,0,-121.5918)">
      <stop
         offset="0"
         style="stop-color:#27AFD9"
         id="stop96" />
      <stop
         offset="1"
         style="stop-color:#42BDD9"
         id="stop97" />
    </linearGradient>
  </defs>
  <g
     inkscape:label="Layer 1"
     inkscape:groupmode="layer"
     id="layer1">
    <g
       id="g1"
       transform="matrix(1.332826,0,0,1.332826,-2.8179268,-2.8179266)">
      <g
         id="g100"
         transform="matrix(0.26458333,0,0,0.26458333,60.219166,24.817916)">
        <path
           class="st23"
           d="m -178.4,-74.8 h -4.7 v -4.4 c 0,-3.3 -2.6,-6.1 -6,-6.3 h -23.7 -0.1 c -3.2,0.2 -5.8,2.8 -6,6 v 0.2 24.1 0.2 c 0.2,3.3 2.9,6 6.2,6.2 h 0.2 4.3 v 4.3 0.2 c 0.2,3.3 2.9,6 6.2,6.2 h 0.2 23.3 0.1 c 3.4,-0.2 6.1,-3.1 6.1,-6.5 v -23.9 c -0.1,-3.3 -2.7,-6.1 -6.1,-6.3 z"
           id="path93"
           style="opacity:0.2;fill:#ffffff;enable-background:new" />
        <path
           class="st10"
           d="m -178.4,-73.8 h -5.7 v -5.4 c 0,-2.8 -2.2,-5.1 -5,-5.3 h -23.7 -0.1 c -2.7,0.2 -4.9,2.4 -5.1,5.1 v 0.1 24 0.2 c 0.2,2.8 2.4,5.1 5.3,5.2 h 0.1 5.3 v 5.3 0.2 c 0.2,2.8 2.4,5.1 5.3,5.2 h 0.1 23.3 0.1 c 2.9,-0.2 5.2,-2.6 5.2,-5.5 v -23.8 c -0.1,-2.8 -2.3,-5.1 -5.1,-5.3 z"
           id="path94"
           style="fill:#ffffff" />
        <g
           id="g99">
          <path
             class="st17"
             d="m -212.6,-53.7 c -0.8,-0.1 -1.5,-0.7 -1.6,-1.5 v -23.9 c 0.1,-0.8 0.7,-1.4 1.4,-1.5 h 23.3 c 0.8,0.1 1.4,0.7 1.4,1.4 v 23.9 c 0,0.8 -0.7,1.5 -1.5,1.6 z"
             id="path95"
             style="opacity:0.4;fill:#bbd8e8;enable-background:new" />
          <path
             class="st18"
             d="m -201.9,-43 c -0.8,-0.1 -1.5,-0.7 -1.6,-1.5 v -23.9 c 0.1,-0.8 0.7,-1.4 1.4,-1.5 h 23.3 c 0.8,0.1 1.4,0.7 1.4,1.4 v 23.9 c 0,0.8 -0.7,1.5 -1.5,1.6 z"
             id="path96"
             style="opacity:0.6;fill:#bbd8e8;enable-background:new" />
          <g
             id="g97">
            <linearGradient
               id="linearGradient2"
               gradientUnits="userSpaceOnUse"
               x1="-195.60921"
               y1="-62.849098"
               x2="-195.60921"
               y2="-57.944199"
               gradientTransform="matrix(1,0,0,-1,0,-121.5918)">
              <stop
                 offset="0"
                 style="stop-color:#27AFD9"
                 id="stop1" />
              <stop
                 offset="1"
                 style="stop-color:#42BDD9"
                 id="stop2" />
            </linearGradient>
            <path
               style="fill:url(#SVGID_00000178168103916819199540000013946339910692155535_)"
               d="m -198.2,-62.4 h 1.8 v -2 h 1.5 v 2 h 1.8 v 1.4 h -1.8 v 2 h -1.5 v -2 h -1.8 z"
               id="path97" />
          </g>
          <path
             class="st2"
             d="m -189.2,-84.5 h -23.7 -0.1 c -2.7,0.2 -4.9,2.4 -5.1,5.1 v 0.1 24 0.2 c 0.2,2.8 2.4,5.1 5.3,5.2 h 0.1 23.3 0.1 c 2.9,-0.2 5.2,-2.6 5.2,-5.5 v -23.8 c -0.1,-2.8 -2.3,-5.1 -5.1,-5.3 z m 2.9,5.3 v 23.9 c 0,1.8 -1.4,3.2 -3.2,3.3 h -23.3 c -1.7,-0.1 -3.1,-1.5 -3.3,-3.2 v -24.1 -0.1 c 0.1,-1.7 1.5,-3 3.1,-3.1 h 23.5 c 1.9,0.2 3.2,1.6 3.2,3.3 z"
             id="path98"
             style="fill:#2f3536" />
          <path
             class="st2"
             d="m -178.4,-73.8 h -23.7 -0.1 c -2.7,0.2 -4.9,2.4 -5.1,5.1 v 0.1 24 0.2 c 0.2,2.8 2.4,5.1 5.3,5.2 h 0.1 23.3 0.1 c 2.9,-0.2 5.2,-2.6 5.2,-5.5 v -23.8 c -0.1,-2.8 -2.3,-5.1 -5.1,-5.3 z m 2.9,5.3 v 23.9 c 0,1.8 -1.4,3.2 -3.2,3.3 H -202 c -1.7,-0.1 -3.1,-1.5 -3.3,-3.2 v -24.1 -0.1 c 0.1,-1.7 1.5,-3 3.1,-3.1 h 23.5 c 1.8,0.3 3.2,1.7 3.2,3.3 z"
             id="path99"
             style="fill:#2f3536" />
        </g>
      </g>
    </g>
  </g>
</svg>
