<?xml version="1.0" encoding="UTF-8" standalone="no"?>
<svg
   id="Capa_1"
   data-name="Capa 1"
   viewBox="0 0 64 64"
   version="1.1"
   sodipodi:docname="pardus-android-emulator.svg"
   inkscape:version="1.3 (0e150ed6c4, 2023-07-21)"
   xmlns:inkscape="http://www.inkscape.org/namespaces/inkscape"
   xmlns:sodipodi="http://sodipodi.sourceforge.net/DTD/sodipodi-0.dtd"
   xmlns="http://www.w3.org/2000/svg"
   xmlns:svg="http://www.w3.org/2000/svg">
  <sodipodi:namedview
     id="namedview4"
     pagecolor="#ffffff"
     bordercolor="#000000"
     borderopacity="0.25"
     inkscape:showpageshadow="2"
     inkscape:pageopacity="0.0"
     inkscape:pagecheckerboard="0"
     inkscape:deskcolor="#d1d1d1"
     inkscape:zoom="7.2265625"
     inkscape:cx="26.983784"
     inkscape:cy="35.355676"
     inkscape:window-width="1920"
     inkscape:window-height="1127"
     inkscape:window-x="0"
     inkscape:window-y="0"
     inkscape:window-maximized="1"
     inkscape:current-layer="Capa_1" />
  <defs
     id="defs1">
    <style
       id="style1">.cls-1{fill:#444;}.cls-2{fill:#ff9f00;}.cls-3{fill:#ffd400;}</style>
    <linearGradient
       id="SVGID_1_"
       gradientUnits="userSpaceOnUse"
       x1="-351.01849"
       y1="-48.4907"
       x2="-351.01849"
       y2="-75.323502"
       gradientTransform="matrix(1,0,0,-1,0,-121.5918)">
      <stop
         offset="0"
         style="stop-color:#5FB672"
         id="stop59" />
      <stop
         offset="1"
         style="stop-color:#32B18C"
         id="stop60" />
    </linearGradient>
  </defs>
  <g
     id="g1"
     transform="matrix(1.2252671,0,0,1.2252671,-7.2085481,-7.2085481)">
    <g
       id="g61"
       transform="translate(383.1,93.8)">
      <path
         class="st0"
         d="m -327.1,-78.9 h -48 c -1,0 -1.8,0.9 -1.8,1.9 v 30.4 c 0,1.1 0.8,1.9 1.8,1.9 h 48 c 1,0 1.8,-0.9 1.8,-1.9 V -77 c 0,-1 -0.8,-1.9 -1.8,-1.9 z"
         id="path57"
         style="opacity:0.3;fill:#ffffff;enable-background:new" />
      <path
         class="st10"
         d="m -327.1,-78.3 h -48 c -0.7,0 -1.2,0.6 -1.2,1.3 v 30.4 c 0,0.7 0.5,1.3 1.2,1.3 h 48 c 0.7,0 1.2,-0.6 1.2,-1.3 V -77 c 0,-0.7 -0.5,-1.3 -1.2,-1.3 z"
         id="path58"
         style="fill:#ffffff" />
      <g
         id="g60">
        <g
           id="g59">
          <path
             class="st2"
             d="m -325.9,-76.9 v 30.4 c 0,0.7 -0.5,1.3 -1.2,1.3 h -48 c -0.7,0 -1.2,-0.6 -1.2,-1.3 v -30.4 c 0,-0.7 0.5,-1.3 1.2,-1.3 h 48 c 0.7,-0.1 1.2,0.5 1.2,1.3 z m -2.3,29 v -27.7 h -45.7 v 27.7 z"
             id="path59"
             style="fill:#2f3536" />
        </g>
        <linearGradient
           id="linearGradient2"
           gradientUnits="userSpaceOnUse"
           x1="-351.01849"
           y1="-48.4907"
           x2="-351.01849"
           y2="-75.323502"
           gradientTransform="matrix(1,0,0,-1,0,-121.5918)">
          <stop
             offset="0"
             style="stop-color:#5FB672"
             id="stop1" />
          <stop
             offset="1"
             style="stop-color:#32B18C"
             id="stop2" />
        </linearGradient>
        <path
           class="st11"
           d="m -342.9,-64.5 2.8,-4.8 c 0.2,-0.3 0.1,-0.6 -0.2,-0.8 -0.3,-0.2 -0.6,-0.1 -0.8,0.2 l -2.8,4.8 c -2.1,-1 -4.5,-1.5 -7.1,-1.5 -2.6,0 -5,0.5 -7.1,1.5 l -2.8,-4.8 c -0.2,-0.3 -0.5,-0.4 -0.8,-0.2 -0.3,0.2 -0.4,0.5 -0.2,0.8 l 2.8,4.8 c -4.8,2.6 -8,7.4 -8.5,13 h 33.2 c -0.5,-5.5 -3.8,-10.4 -8.5,-13 z m -15.8,8.4 c -0.8,0 -1.4,-0.6 -1.4,-1.4 0,-0.8 0.6,-1.4 1.4,-1.4 0.8,0 1.4,0.6 1.4,1.4 0,0.8 -0.6,1.4 -1.4,1.4 z m 15.3,0 c -0.8,0 -1.4,-0.6 -1.4,-1.4 0,-0.8 0.6,-1.4 1.4,-1.4 0.8,0 1.4,0.6 1.4,1.4 0,0.8 -0.6,1.4 -1.4,1.4 z"
           id="path60"
           style="fill:url(#SVGID_1_)" />
      </g>
    </g>
  </g>
</svg>
