<svg width="64" height="64" viewBox="0 0 64 64" fill="none" xmlns="http://www.w3.org/2000/svg">
<rect x="5.12006" y="9.10219" width="53.76" height="49.7778" rx="7.96444" fill="url(#paint0_linear_2691_1017)"/>
<rect x="5.12" y="5.12" width="53.76" height="49.7778" rx="7.96444" fill="#444444"/>
<rect x="5.81688" y="5.81688" width="52.3662" height="48.384" rx="7.26756" stroke="url(#paint1_linear_2691_1017)" stroke-width="1.39378" style="mix-blend-mode:soft-light"/>
<g filter="url(#filter0_d_2691_1017)">
<path d="M33.7936 12.4193L33.8806 12.4242C34.0819 12.445 34.2713 12.5338 34.4157 12.6781C34.5603 12.8226 34.6498 13.0126 34.6706 13.2142L34.6755 13.3011V13.682C34.6755 14.8226 35.4819 15.7603 36.5222 16.098C37.5612 16.4351 38.763 16.151 39.4333 15.2298L39.6569 14.9222C39.7956 14.7352 40.0021 14.6096 40.2321 14.5736C40.4614 14.5378 40.6966 14.593 40.8854 14.7279V14.7289L43.7888 16.8372C43.9771 16.9743 44.1035 17.1805 44.1403 17.4105C44.177 17.64 44.1217 17.8751 43.986 18.0638L43.7595 18.3744C43.0893 19.2953 43.1893 20.5262 43.8298 21.4105C44.4708 22.2955 45.6105 22.774 46.695 22.4232L47.0622 22.304C47.2844 22.2325 47.5262 22.2526 47.7341 22.3587C47.9159 22.4516 48.0589 22.6041 48.1403 22.7894L48.1716 22.8705L49.28 26.2796C49.3513 26.5012 49.3324 26.7418 49.2272 26.9496C49.1225 27.1564 48.941 27.314 48.7214 27.388L48.3552 27.5062C47.2697 27.8573 46.6237 28.9131 46.6237 30.0081C46.6239 31.104 47.2706 32.1598 48.3571 32.5101L48.7087 32.6224C48.9318 32.6954 49.1172 32.8548 49.2243 33.0638C49.331 33.2723 49.3506 33.5144 49.28 33.7376L48.1716 37.1468C48.0986 37.3685 47.941 37.5525 47.7331 37.6585C47.5251 37.7646 47.2836 37.7843 47.0612 37.7132H47.0622L46.695 37.5941C45.6105 37.2433 44.4708 37.7228 43.8298 38.6078C43.1895 39.492 43.0895 40.7221 43.7595 41.6429L43.985 41.9515V41.9525C44.1213 42.1414 44.177 42.3768 44.1403 42.6068C44.1081 42.8081 44.0071 42.9909 43.8561 43.1253L43.7888 43.18L40.8854 45.2884C40.6965 45.4236 40.4617 45.4795 40.2321 45.4437C40.0032 45.4078 39.7975 45.2836 39.6589 45.098L39.4333 44.7874C38.763 43.8663 37.5612 43.583 36.5222 43.9203C35.4819 44.2579 34.6755 45.1947 34.6755 46.3353V46.7181C34.6741 46.9512 34.5805 47.1744 34.4157 47.3392C34.2506 47.5042 34.0271 47.5979 33.7936 47.599H30.2067C29.9731 47.598 29.7489 47.5044 29.5837 47.3392C29.4391 47.1946 29.3504 47.0048 29.3298 46.8031L29.3249 46.7162V46.3353C29.3249 45.1948 28.5183 44.258 27.4782 43.9203C26.4392 43.583 25.2374 43.8664 24.5671 44.7874L24.3415 45.098C24.2027 45.2838 23.9965 45.4079 23.7673 45.4437C23.5378 45.4795 23.3038 45.4235 23.1149 45.2884L20.2116 43.18C20.0232 43.043 19.8968 42.8369 19.86 42.6068C19.8233 42.3768 19.879 42.1414 20.0153 41.9525L20.0143 41.9515L20.2409 41.6429C20.9108 40.722 20.8101 39.492 20.1696 38.6078C19.5286 37.7228 18.3899 37.2433 17.3054 37.5941L16.9372 37.7132C16.8273 37.7489 16.7115 37.7633 16.5964 37.7542C16.4812 37.7451 16.3683 37.713 16.2653 37.6605C16.1625 37.608 16.0707 37.5355 15.9958 37.4476C15.9396 37.3817 15.8936 37.3079 15.8591 37.2289L15.8288 37.1478L14.7194 33.7386H14.7204C14.6489 33.5169 14.6669 33.2756 14.7722 33.0677C14.8769 32.8607 15.0592 32.7033 15.279 32.6292L15.6452 32.5111C16.7305 32.16 17.3766 31.105 17.3766 30.0101C17.3766 28.9141 16.729 27.8584 15.6423 27.5081L15.2917 27.3949H15.2927C15.0691 27.322 14.8833 27.1637 14.7761 26.9544C14.6689 26.7452 14.649 26.5017 14.7204 26.2777L14.7194 26.2767L15.8288 22.8705V22.8695C15.8645 22.7597 15.9209 22.6575 15.9958 22.5697C16.0707 22.4819 16.1626 22.4103 16.2653 22.3578C16.3683 22.3052 16.4812 22.2731 16.5964 22.264C16.7115 22.2549 16.8273 22.2684 16.9372 22.304L17.3054 22.4232C18.3898 22.7739 19.5286 22.2952 20.1696 21.4105C20.8101 20.5262 20.911 19.2953 20.2409 18.3744L20.0143 18.0638C19.8786 17.8751 19.8233 17.6401 19.86 17.4105C19.8969 17.1805 20.0232 16.9742 20.2116 16.8372L23.1149 14.7289C23.3033 14.5922 23.5383 14.5357 23.7682 14.5716C23.9974 14.6075 24.2038 14.7317 24.3415 14.9183V14.9193L24.5671 15.2298C25.2374 16.151 26.4392 16.4353 27.4782 16.098C28.5184 15.7603 29.3249 14.8226 29.3249 13.682V13.3011C29.3259 13.0675 29.4185 12.8433 29.5837 12.6781C29.7282 12.5335 29.9182 12.4449 30.1198 12.4242L30.2067 12.4193H33.7936ZM31.9997 19.3978C29.9013 19.3979 27.85 20.0201 26.1052 21.1859C24.3602 22.3518 23.0001 24.0097 22.197 25.9486C21.3939 27.8874 21.1831 30.0212 21.5925 32.0794C22.0019 34.1376 23.0129 36.0282 24.4968 37.5121C25.9808 38.996 27.872 40.0069 29.9304 40.4164C31.9886 40.8257 34.1224 40.6149 36.0612 39.8119C37.9999 39.0087 39.6571 37.6485 40.8229 35.9037C41.9887 34.1588 42.611 32.1076 42.611 30.0091V30.0081C42.6073 27.1952 41.4887 24.4982 39.4997 22.5091C37.5107 20.5201 34.8136 19.4015 32.0007 19.3978H31.9997Z" fill="#727272" stroke="url(#paint2_linear_2691_1017)" stroke-width="0.71249"/>
</g>
<circle cx="32.0002" cy="29.8451" r="10.7936" stroke="url(#paint3_linear_2691_1017)" stroke-width="0.511547"/>
<g filter="url(#filter1_d_2691_1017)">
<path d="M33.7559 16.5767C33.8961 16.3552 34.1787 16.2687 34.418 16.3717C34.6593 16.4754 34.7889 16.7391 34.7246 16.9947L32.3731 26.3277L32.293 26.6461H38.9453C39.0408 26.6461 39.1347 26.6718 39.2168 26.7203C39.299 26.7689 39.367 26.8388 39.4131 26.9224C39.4591 27.006 39.4814 27.1005 39.4785 27.1959C39.4764 27.2676 39.4604 27.3381 39.4307 27.4029L39.3965 27.4654L29.9209 42.5201C29.7976 42.7146 29.568 42.8052 29.3506 42.7554L29.2588 42.7252C29.0479 42.6343 28.9216 42.4217 28.9366 42.1988L28.9522 42.1031L31.3037 32.7691L31.3838 32.4517H24.7325C24.6371 32.4517 24.5431 32.4259 24.461 32.3775C24.3788 32.329 24.3108 32.2589 24.2647 32.1754C24.2186 32.0918 24.1955 31.9973 24.1983 31.9019C24.2011 31.8066 24.2294 31.7131 24.2803 31.6324H24.2813L33.7559 16.5767Z" fill="#9EEF18" stroke="#76B60C" stroke-width="0.511547"/>
</g>
<defs>
<filter id="filter0_d_2691_1017" x="13.321" y="12.0628" width="37.3581" height="38.892" filterUnits="userSpaceOnUse" color-interpolation-filters="sRGB">
<feFlood flood-opacity="0" result="BackgroundImageFix"/>
<feColorMatrix in="SourceAlpha" type="matrix" values="0 0 0 0 0 0 0 0 0 0 0 0 0 0 0 0 0 0 127 0" result="hardAlpha"/>
<feOffset dy="2"/>
<feGaussianBlur stdDeviation="0.5"/>
<feComposite in2="hardAlpha" operator="out"/>
<feColorMatrix type="matrix" values="0 0 0 0 0 0 0 0 0 0 0 0 0 0 0 0 0 0 0.3 0"/>
<feBlend mode="normal" in2="BackgroundImageFix" result="effect1_dropShadow_2691_1017"/>
<feBlend mode="normal" in="SourceGraphic" in2="effect1_dropShadow_2691_1017" result="shape"/>
</filter>
<filter id="filter1_d_2691_1017" x="21.7325" y="16.0728" width="20.2121" height="32.4464" filterUnits="userSpaceOnUse" color-interpolation-filters="sRGB">
<feFlood flood-opacity="0" result="BackgroundImageFix"/>
<feColorMatrix in="SourceAlpha" type="matrix" values="0 0 0 0 0 0 0 0 0 0 0 0 0 0 0 0 0 0 127 0" result="hardAlpha"/>
<feOffset dy="3.28474"/>
<feGaussianBlur stdDeviation="1.10494"/>
<feComposite in2="hardAlpha" operator="out"/>
<feColorMatrix type="matrix" values="0 0 0 0 0 0 0 0 0 0 0 0 0 0 0 0 0 0 0.5 0"/>
<feBlend mode="normal" in2="BackgroundImageFix" result="effect1_dropShadow_2691_1017"/>
<feBlend mode="normal" in="SourceGraphic" in2="effect1_dropShadow_2691_1017" result="shape"/>
</filter>
<linearGradient id="paint0_linear_2691_1017" x1="5.25281" y1="58.0509" x2="58.523" y2="58.0509" gradientUnits="userSpaceOnUse">
<stop stop-color="#434342"/>
<stop offset="0.0414257" stop-color="#444443"/>
<stop offset="0.0815191" stop-color="#1D1C1D"/>
<stop offset="0.899024" stop-color="#1E1C1D"/>
<stop offset="0.952865" stop-color="#444443"/>
<stop offset="1" stop-color="#434343"/>
</linearGradient>
<linearGradient id="paint1_linear_2691_1017" x1="32" y1="1.13777" x2="32" y2="60.8711" gradientUnits="userSpaceOnUse">
<stop stop-color="white" stop-opacity="0.9"/>
<stop offset="1" stop-color="white" stop-opacity="0.1"/>
</linearGradient>
<linearGradient id="paint2_linear_2691_1017" x1="32" y1="32.9999" x2="32" y2="12.0628" gradientUnits="userSpaceOnUse">
<stop stop-color="#727271"/>
<stop offset="1" stop-color="#C4C4C4"/>
</linearGradient>
<linearGradient id="paint3_linear_2691_1017" x1="32.0002" y1="40.8945" x2="32.2257" y2="19.6977" gradientUnits="userSpaceOnUse">
<stop stop-color="#C3C3C3"/>
<stop offset="1" stop-color="#5D5D5D"/>
</linearGradient>
</defs>
</svg>
