<?xml version="1.0" encoding="UTF-8" standalone="no"?>
<!-- Generator: Adobe Illustrator 24.1.1, SVG Export Plug-In . SVG Version: 6.00 Build 0)  -->

<svg
   version="1.1"
   id="Layer_1"
   x="0px"
   y="0px"
   viewBox="0 0 64 64"
   style="enable-background:new 0 0 64 64;"
   xml:space="preserve"
   sodipodi:docname="pardus-usb-formatter.svg"
   inkscape:version="1.3 (0e150ed6c4, 2023-07-21)"
   xmlns:inkscape="http://www.inkscape.org/namespaces/inkscape"
   xmlns:sodipodi="http://sodipodi.sourceforge.net/DTD/sodipodi-0.dtd"
   xmlns="http://www.w3.org/2000/svg"
   xmlns:svg="http://www.w3.org/2000/svg"><defs
   id="defs6" /><sodipodi:namedview
   id="namedview6"
   pagecolor="#ffffff"
   bordercolor="#000000"
   borderopacity="0.25"
   inkscape:showpageshadow="2"
   inkscape:pageopacity="0.0"
   inkscape:pagecheckerboard="0"
   inkscape:deskcolor="#d1d1d1"
   inkscape:zoom="1.7558594"
   inkscape:cx="11.390434"
   inkscape:cy="-13.953281"
   inkscape:window-width="1920"
   inkscape:window-height="1127"
   inkscape:window-x="0"
   inkscape:window-y="0"
   inkscape:window-maximized="1"
   inkscape:current-layer="Layer_1" />&#10;<style
   type="text/css"
   id="style1">&#10;	.st0{fill:url(#SVGID_1_);}&#10;	.st1{fill:#FFFFFF;}&#10;</style>&#10;&#10;<g
   id="g222"
   transform="translate(-415.02455,210.70987)"><g
     id="g213"
     transform="translate(62.932503,2.8284271)"><path
       class="st0"
       d="m 407.49205,-165.9883 v -31.1 c -0.3,-4.2 -3.5,-7.4 -7.7,-7.8 h -31.2 c -4.3,0.3 -7.7,3.8 -7.9,8.1 v 30.6 0 c 0.3,4.5 3.8,8 8.2,8 h 30.6 c 4.2,0 7.7,-3.4 8,-7.8 z"
       id="path210"
       style="opacity:0.3;fill:#ffffff;enable-background:new" /><path
       class="st21"
       d="m 362.29205,-196.6383 v -0.2 c 0.2,-3.5 3,-6.3 6.4,-6.6 h 0.2 30.7 0.2 c 3.3,0.2 6,3 6.2,6.4 v 0.2 30.9 c -0.2,3.5 -3.1,6.3 -6.5,6.3 h -30.6 c -3.5,0 -6.4,-2.8 -6.7,-6.5 v -0.1 z"
       id="path211"
       style="fill:#ebf3f8;fill-opacity:1" /><g
       id="g212"
       transform="rotate(90,302.09018,20.201874)">&#10;		<path
   class="st2"
   d="m 85.3,-38.9 h -0.2 c -4.1,-0.2 -7.3,-3.4 -7.6,-7.4 v -0.3 -30.7 -0.2 c 0.3,-3.9 3.4,-6.9 7.3,-7.2 h 0.2 30.9 c 4.1,0.3 7.3,3.6 7.3,7.5 v 30.6 c 0,4.1 -3.3,7.4 -7.5,7.7 h -0.1 z M 85.1,-82.6 H 85 c -2.9,0.2 -5.2,2.4 -5.4,5.2 v 0.1 30.8 c 0.2,2.9 2.6,5.2 5.6,5.4 h 0.1 30.4 c 3.1,-0.2 5.5,-2.7 5.5,-5.6 v -30.6 c 0,-2.8 -2.3,-5.2 -5.3,-5.4 z"
   id="path212"
   style="fill:#2f3536" />&#10;	</g></g><g
     id="g5"
     transform="matrix(0.8427985,0,0,0.8427985,420.13928,-205.55301)"
     style="fill:#36b7d9;fill-opacity:1">&#10;		<path
   class="st1"
   d="m 26.4,17.4 c -0.6,0 -1.3,0.4 -1.3,1.3 v 2.1 0.4 2.8 c 0,0.6 0.4,1.3 1.3,1.3 0.6,0 1.3,-0.4 1.3,-1.3 v -2.8 -0.4 -2.1 c 0.2,-0.8 -0.5,-1.3 -1.3,-1.3 z"
   id="path3-11"
   style="fill:#36b7d9;fill-opacity:1;enable-background:new" />&#10;		<path
   class="st1"
   d="m 49.3,27.9 h -3.8 v -12 c 0,-2.1 -1.7,-3.8 -3.8,-3.8 h -7.9 -3.4 -8.1 c -2.1,0 -3.8,1.7 -3.8,3.8 v 11.9 h -3.8 c -0.6,0 -1.3,0.4 -1.3,1.3 v 13.6 c 0,4.9 4,8.9 8.9,8.9 h 7.9 3.4 7.9 c 4.9,0 8.9,-4 8.9,-8.9 V 29.1 c 0,-0.6 -0.4,-1.2 -1.1,-1.2 z M 30,37.6 c -1.3,0 -1.9,0.4 -2.1,0.9 -0.2,0.5 -0.4,0.9 -0.4,1.5 l -1.3,1 c 0,-1.1 0,-2.1 0.6,-3.2 0.6,-1.1 1.7,-1.5 3.4,-1.5 h 5.1 v -1.9 l 1.9,1.7 c 0.4,0.4 0.4,1.3 0,1.7 l -2.1,1.7 v -1.9 c 0,0 -5.1,0 -5.1,0 z m 7.4,4.1 c -0.6,1.1 -1.7,1.5 -3.4,1.5 h -4.9 v 1.9 L 27,43.4 C 26.6,43 26.6,42.1 27,41.7 L 29.1,40 v 1.9 H 34 c 1.3,0 1.9,-0.4 2.1,-0.9 0.2,-0.4 0.4,-0.9 0.4,-1.5 L 38,38.6 c 0.1,1.2 -0.2,2.2 -0.6,3.1 z M 43,27.9 H 33.9 30.5 21 v -12 c 0,-0.6 0.4,-1.3 1.3,-1.3 h 7.9 3.4 8.1 c 0.6,0 1.3,0.4 1.3,1.3 z"
   id="path4-5"
   style="fill:#36b7d9;fill-opacity:1;enable-background:new" />&#10;		<path
   class="st1"
   d="m 37.6,17.4 c -0.6,0 -1.3,0.4 -1.3,1.3 v 2.1 1.1 2.1 c 0,0.6 0.4,1.3 1.3,1.3 0.6,0 1.3,-0.4 1.3,-1.3 v -2.1 -1.1 -2.1 c 0,-0.6 -0.6,-1.3 -1.3,-1.3 z"
   id="path5-98"
   style="fill:#36b7d9;fill-opacity:1;enable-background:new" />&#10;	</g></g></svg>
