<?xml version="1.0" encoding="UTF-8" standalone="no"?>
<!-- Generator: Adobe Illustrator 23.0.3, SVG Export Plug-In . SVG Version: 6.00 Build 0)  -->

<svg
   version="1.1"
   id="Layer_1"
   x="0px"
   y="0px"
   viewBox="0 0 64 64"
   style="enable-background:new 0 0 64 64;"
   xml:space="preserve"
   sodipodi:docname="pardus-image-writer.svg"
   inkscape:version="1.3 (0e150ed6c4, 2023-07-21)"
   xmlns:inkscape="http://www.inkscape.org/namespaces/inkscape"
   xmlns:sodipodi="http://sodipodi.sourceforge.net/DTD/sodipodi-0.dtd"
   xmlns="http://www.w3.org/2000/svg"
   xmlns:svg="http://www.w3.org/2000/svg"><defs
   id="defs7"><linearGradient
   id="SVGID_00000178168103916819199540000013946339910692155535_"
   gradientUnits="userSpaceOnUse"
   x1="-195.60921"
   y1="-62.849098"
   x2="-195.60921"
   y2="-57.944199"
   gradientTransform="matrix(1,0,0,-1,0,-121.5918)">&#10;				<stop
   offset="0"
   style="stop-color:#27AFD9"
   id="stop96" />&#10;				<stop
   offset="1"
   style="stop-color:#42BDD9"
   id="stop97" />&#10;			</linearGradient>&#10;	&#10;	&#10;</defs><sodipodi:namedview
   id="namedview7"
   pagecolor="#ffffff"
   bordercolor="#000000"
   borderopacity="0.25"
   inkscape:showpageshadow="2"
   inkscape:pageopacity="0.0"
   inkscape:pagecheckerboard="0"
   inkscape:deskcolor="#d1d1d1"
   inkscape:zoom="4.9663204"
   inkscape:cx="16.309862"
   inkscape:cy="44.801781"
   inkscape:window-width="1920"
   inkscape:window-height="1127"
   inkscape:window-x="0"
   inkscape:window-y="0"
   inkscape:window-maximized="1"
   inkscape:current-layer="Layer_1" />&#10;<style
   type="text/css"
   id="style1">&#10;	.st0{fill:#FFFFFF;}&#10;	.st1{fill:#B1D3DF;}&#10;	.st2{fill:#30333A;}&#10;</style>&#10;&#10;<g
   id="g2"
   transform="matrix(1.3842686,0,0,1.3842686,-12.296597,-12.296597)"><rect
     x="33.516476"
     y="11.239301"
     class="st0"
     width="13.679186"
     height="18.081114"
     id="rect1"
     style="fill:#ebf3f8;fill-opacity:1;stroke-width:0.706569;enable-background:new" /><path
     class="st1"
     d="m 32.675656,11.317019 c -0.572322,-0.04948 -1.151705,-0.0777 -1.73816,-0.0777 -11.46056,0 -20.751949,9.298451 -20.751949,20.759011 0,11.460559 9.291389,20.759011 20.759012,20.759011 0.586454,0 1.165846,-0.02824 1.738168,-0.0777 V 11.317053 Z"
     id="path1-8"
     style="fill:#d6e8f1;fill-opacity:1;stroke-width:0.706569;enable-background:new" /><polygon
     class="st0"
     points="21.44,30.42 23.61,35.8 27.53,40.54 31.69,41.48 34.08,41.48 33.09,22.87 28.52,22.87 24.66,26.15 "
     id="polygon1-1"
     style="fill:#ffffff;enable-background:new"
     transform="matrix(0.70656952,0,0,0.70656952,9.4365859,9.3880848)" /><path
     class="st2"
     d="m 31.571635,9.9920578 c 0.10599,0 0.211971,0.00691 0.31796,0.00691 v 2.9322662 c -0.105989,0 -0.21197,-0.0069 -0.31796,-0.0069 -10.527887,0.01416 -19.05618,8.542418 -19.070305,19.070305 0,10.53495 8.535356,19.070315 19.070305,19.070315 0.10599,0 0.211971,-0.0069 0.31796,-0.0069 v 2.932257 c -0.105989,0 -0.21197,0.0069 -0.31796,0.0069 C 19.425711,53.983042 9.5831974,44.140554 9.5690638,31.994621 9.5690638,19.841626 19.41864,9.9920491 31.571635,9.9920491 Z"
     id="path2-0"
     style="fill:#2f3536;fill-opacity:1;stroke-width:14.9366;stroke-dasharray:none" /><circle
     class="st0"
     cx="31.40383"
     cy="31.998308"
     r="7.3341923"
     id="circle2"
     style="opacity:0.3;fill:#ebf3f8;fill-opacity:1;stroke-width:0.706569;enable-background:new" /><rect
     x="10.113444"
     y="-34.648117"
     transform="rotate(90)"
     class="st2"
     width="43.885033"
     height="2.826278"
     id="rect2"
     style="fill:#2f3536;fill-opacity:1;stroke-width:0.706569" /><path
     class="st2"
     d="m 31.827777,27.568118 h 21.190021 c 0.77722,0 1.413138,0.63591 1.413138,1.413139 v 15.134716 c 0,5.454718 -4.437259,9.891978 -9.891977,9.891978 H 31.827777 Z"
     id="path3-3"
     style="fill:#2f3536;fill-opacity:1;stroke-width:0.706569" /><path
     class="st2"
     d="m 31.827777,27.568118 h 14.12432 V 14.235151 c 0,-0.777229 -0.635909,-1.413139 -1.413138,-1.413139 H 31.827777 V 9.9957358 h 12.711182 c 2.338749,0 4.239415,1.9006662 4.239415,4.2394152 v 14.746106 c 0,0.777229 -0.635909,1.413138 -1.413138,1.413138 H 31.827777 Z"
     id="path4-0"
     style="fill:#2f3536;fill-opacity:1;stroke-width:0.706569" /><g
     id="g1"
     transform="matrix(0.97736579,0,0,0.97736579,2.2986856,0.3306971)"><path
       class="st1"
       d="m 39.972526,19.930394 v 3.592974 c 0,0.795228 -0.650646,1.445864 -1.445865,1.445864 -0.795228,0 -1.445864,-0.650636 -1.445864,-1.445864 v -3.592974 z"
       id="path5-4"
       style="fill:#b1d3df;stroke-width:0.722932;enable-background:new" /><path
       class="st1"
       d="m 37.080797,20.429221 v -2.992937 c 0,-0.795228 0.650636,-1.445873 1.445864,-1.445873 0.795219,0 1.445865,0.650645 1.445865,1.445873 v 2.985711 h -2.891729 z"
       id="path6-4"
       style="fill:#b1d3df;stroke-width:0.722932;enable-background:new" /></g><path
     id="path4497_2_"
     class="st0"
     d="m 46.411367,42.314225 c 0,0.763095 -0.268496,1.370745 -0.798424,1.907737 -0.536993,0.536992 -1.179964,0.798425 -1.943059,0.798425 h -0.537 c -0.381548,0 -0.536992,0.190774 -0.536992,0.536991 v 2.176234 c 0,0.303825 -0.113052,0.572321 -0.303825,0.763095 -0.226104,0.226104 -0.4946,0.346218 -0.798426,0.346218 H 40.95665 c -0.303826,0 -0.572321,-0.113051 -0.763095,-0.346218 -0.226104,-0.190774 -0.346218,-0.45927 -0.346218,-0.763095 V 35.262657 c 0,-0.763095 0.268496,-1.370737 0.798424,-1.943058 0.536993,-0.537 1.144643,-0.798425 1.907738,-0.798425 h 1.066921 c 0.763095,0 1.370746,0.268496 1.943068,0.798425 0.536991,0.536992 0.798425,1.179963 0.798425,1.943058 v 7.05863 h 0.04947 z m -2.748555,-0.572321 v -5.949317 c 0,-0.381548 -0.190774,-0.536992 -0.536991,-0.536992 -0.381548,0 -0.536992,0.190774 -0.536992,0.536992 v 5.984646 c 0,0.381547 0.190774,0.536992 0.536992,0.536992 0.38861,0 0.536991,-0.190774 0.536991,-0.572321 z"
     style="fill:#e2e2e2;fill-opacity:1;stroke-width:0.706569;enable-background:new" /><path
     class="st2"
     d="m 31.587539,24.289635 c 0.0777,0 0.155444,0.0069 0.233166,0.01416 v 2.147966 c -0.0777,0 -0.155444,-0.01416 -0.233166,-0.01416 -2.967587,0.0069 -5.369924,2.4094 -5.369924,5.369924 0,2.967596 2.402337,5.369933 5.369924,5.369933 0.0777,0 0.155444,-0.0069 0.233166,-0.01416 v 2.147974 c -0.0777,0 -0.155444,0.01416 -0.233166,0.01416 -4.15463,-0.0069 -7.517898,-3.370331 -7.524961,-7.524962 0.0069,-4.140497 3.377402,-7.510836 7.524961,-7.510835 z"
     id="path7-4"
     style="fill:#2f3536;fill-opacity:1;stroke-width:0.706569" /></g></svg>
