<svg width="64" height="64" viewBox="0 0 64 64" fill="none" xmlns="http://www.w3.org/2000/svg">
<rect x="5.12013" y="9.10226" width="53.7599" height="49.7777" rx="7.96444" fill="url(#paint0_linear_2691_1020)"/>
<rect x="5.12013" y="9.10226" width="53.7599" height="49.7777" rx="7.96444" fill="black" fill-opacity="0.3"/>
<rect x="5.11996" y="5.12" width="53.7599" height="49.7777" rx="7.96444" fill="url(#paint1_linear_2691_1020)"/>
<path d="M12.7931 33.2702C12.7931 33.2702 17.0109 39.4728 25.4323 40.1145V42.3647C16.1045 41.6181 11.0336 32.5153 11.0336 32.5153C11.0336 32.5153 12.602 20.562 25.4323 19.3548V21.7467C16.0168 22.9273 12.7931 33.2702 12.7931 33.2702ZM25.4323 26.5035V24.3128C18.3162 25.5775 16.341 32.9502 16.341 32.9502C16.341 32.9502 19.7577 36.7228 25.4323 37.3346V34.9309C25.4279 34.9309 25.4249 34.9323 25.4214 34.9323C22.4431 35.2885 20.1164 32.5153 20.1164 32.5153C20.1164 32.5153 21.4205 27.847 25.4323 26.5035ZM25.4323 46.5152V42.3647C25.7061 42.3857 25.9799 42.4034 26.2552 42.4127C36.8599 42.769 43.7695 33.7438 43.7695 33.7438C43.7695 33.7438 35.8336 24.1255 27.5657 24.1255C26.8079 24.1255 26.0985 24.1952 25.4323 24.3128V21.7467C26.0215 21.6712 26.6151 21.633 27.2092 21.6324C34.903 21.6324 40.467 25.5488 45.8546 30.184C46.7478 29.471 50.4048 27.7363 51.1566 26.9771C46.034 22.7022 34.0954 19.2564 27.3271 19.2564C26.6747 19.2564 26.0481 19.2956 25.4323 19.3548V16.9472C41.1279 17.5603 52.4288 22.9407 52.4288 26.5035C45.8546 39.249 37.6536 46.3914 25.4323 46.5152ZM25.4323 37.3346V40.1145C25.7033 40.1333 25.9763 40.1477 26.2552 40.1565C33.881 40.3952 38.884 33.6248 38.884 33.6248C38.884 33.6248 33.4803 26.1447 27.6864 26.1447C26.8525 26.1447 26.1051 26.2781 25.4323 26.5035V34.9309C28.401 34.5734 28.9983 33.2665 30.7831 30.3009L34.7529 33.6371C34.7529 33.6371 31.8552 37.425 26.9704 37.425C26.4393 37.4252 25.9312 37.3878 25.4323 37.3346Z" fill="url(#paint2_linear_2691_1020)"/>
<rect x="5.81685" y="5.81689" width="52.3662" height="48.3839" rx="7.26755" stroke="url(#paint3_linear_2691_1020)" stroke-width="1.39378" style="mix-blend-mode:soft-light"/>
<g opacity="0.6">
<rect x="5.81685" y="5.81689" width="52.3662" height="48.3839" rx="7.26755" stroke="url(#paint4_linear_2691_1020)" stroke-width="1.39378" style="mix-blend-mode:soft-light"/>
</g>
<defs>
<linearGradient id="paint0_linear_2691_1020" x1="5.12013" y1="58.88" x2="58.88" y2="58.88" gradientUnits="userSpaceOnUse">
<stop stop-color="#A0A0A0"/>
<stop offset="0.05" stop-color="#D3D3D3"/>
<stop offset="0.15" stop-color="#394E3E"/>
<stop offset="0.85" stop-color="#394E3E"/>
<stop offset="0.95" stop-color="#D3D3D3"/>
<stop offset="1" stop-color="#A0A0A0"/>
</linearGradient>
<linearGradient id="paint1_linear_2691_1020" x1="31.9999" y1="5.12" x2="31.9999" y2="54.8977" gradientUnits="userSpaceOnUse">
<stop stop-color="#122B17"/>
<stop offset="1" stop-color="#0A230F"/>
</linearGradient>
<linearGradient id="paint2_linear_2691_1020" x1="31.7312" y1="16.9472" x2="31.7312" y2="46.5152" gradientUnits="userSpaceOnUse">
<stop stop-color="#20FF0C"/>
<stop offset="1" stop-color="#0A7800"/>
</linearGradient>
<linearGradient id="paint3_linear_2691_1020" x1="31.9999" y1="1.13779" x2="31.9999" y2="60.8711" gradientUnits="userSpaceOnUse">
<stop stop-color="white"/>
<stop offset="1" stop-color="white"/>
</linearGradient>
<linearGradient id="paint4_linear_2691_1020" x1="31.9999" y1="1.13779" x2="31.9999" y2="60.8711" gradientUnits="userSpaceOnUse">
<stop stop-color="white"/>
<stop offset="1" stop-color="white"/>
</linearGradient>
</defs>
</svg>
