<?xml version="1.0" encoding="UTF-8" standalone="no"?>
<!-- Generator: Adobe Illustrator 25.1.0, SVG Export Plug-In . SVG Version: 6.00 Build 0)  -->

<svg
   version="1.1"
   id="Layer_1"
   x="0px"
   y="0px"
   viewBox="0 0 64 64"
   style="enable-background:new 0 0 64 64;"
   xml:space="preserve"
   sodipodi:docname="applications-other.svg"
   inkscape:version="1.2.2 (b0a8486541, 2022-12-01)"
   xmlns:inkscape="http://www.inkscape.org/namespaces/inkscape"
   xmlns:sodipodi="http://sodipodi.sourceforge.net/DTD/sodipodi-0.dtd"
   xmlns="http://www.w3.org/2000/svg"
   xmlns:svg="http://www.w3.org/2000/svg"><defs
   id="defs37">
	<linearGradient
   id="SVGID_1_"
   gradientUnits="userSpaceOnUse"
   x1="19.3228"
   y1="8.096"
   x2="18.2045"
   y2="20.2479">
		<stop
   offset="0"
   style="stop-color:#1379E6"
   id="stop4" />
		<stop
   offset="1"
   style="stop-color:#115CCC"
   id="stop6" />
	</linearGradient>
	
	<linearGradient
   id="SVGID_2_"
   gradientUnits="userSpaceOnUse"
   x1="45.2112"
   y1="7.8333"
   x2="45.8778"
   y2="24.3171">
		<stop
   offset="0"
   style="stop-color:#EAE7EA"
   id="stop11" />
		<stop
   offset="1"
   style="stop-color:#D6D3E3"
   id="stop13" />
	</linearGradient>
	
	<linearGradient
   id="SVGID_3_"
   gradientUnits="userSpaceOnUse"
   x1="45.2112"
   y1="34.5255"
   x2="45.8778"
   y2="51.0093">
		<stop
   offset="0"
   style="stop-color:#EAE7EA"
   id="stop18" />
		<stop
   offset="1"
   style="stop-color:#D6D3E3"
   id="stop20" />
	</linearGradient>
	
	<linearGradient
   id="SVGID_4_"
   gradientUnits="userSpaceOnUse"
   x1="17.9136"
   y1="34.5255"
   x2="18.5802"
   y2="51.0093">
		<stop
   offset="0"
   style="stop-color:#EAE7EA"
   id="stop25" />
		<stop
   offset="1"
   style="stop-color:#D6D3E3"
   id="stop27" />
	</linearGradient>
	
</defs><sodipodi:namedview
   id="namedview35"
   pagecolor="#ffffff"
   bordercolor="#000000"
   borderopacity="0.25"
   inkscape:showpageshadow="2"
   inkscape:pageopacity="0.0"
   inkscape:pagecheckerboard="0"
   inkscape:deskcolor="#d1d1d1"
   showgrid="false"
   inkscape:zoom="10.429825"
   inkscape:cx="56.856179"
   inkscape:cy="31.256517"
   inkscape:window-width="1920"
   inkscape:window-height="1133"
   inkscape:window-x="0"
   inkscape:window-y="0"
   inkscape:window-maximized="1"
   inkscape:current-layer="Layer_1" />
<style
   type="text/css"
   id="style2">
	.st0{fill:url(#SVGID_1_);}
	.st1{fill:url(#SVGID_2_);}
	.st2{fill:url(#SVGID_3_);}
	.st3{fill:url(#SVGID_4_);}
</style>
<path
   class="st0"
   d="m 10.1,9.5 h 16.5 c 0.5,0 0.9,0.4 0.9,0.9 v 16.5 c 0,0.5 -0.4,0.9 -0.9,0.9 H 10.1 C 9.6,27.8 9.2,27.4 9.2,26.9 V 10.4 c 0,-0.5 0.4,-0.9 0.9,-0.9 z"
   id="path9"
   style="fill:#ffffff;fill-opacity:1" /><path
   class="st1"
   d="m 37.4,9.5 h 16.5 c 0.5,0 0.9,0.4 0.9,0.9 v 16.5 c 0,0.5 -0.4,0.9 -0.9,0.9 H 37.4 c -0.5,0 -0.9,-0.4 -0.9,-0.9 V 10.4 c 0,-0.5 0.4,-0.9 0.9,-0.9 z"
   id="path16"
   style="fill:#d6d3e3;fill-opacity:1" /><path
   class="st2"
   d="m 37.4,36.2 h 16.5 c 0.5,0 0.9,0.4 0.9,0.9 v 16.5 c 0,0.5 -0.4,0.9 -0.9,0.9 H 37.4 c -0.5,0 -0.9,-0.4 -0.9,-0.9 V 37.1 c 0,-0.5 0.4,-0.9 0.9,-0.9 z"
   id="path23"
   style="fill:#d6d3e3;fill-opacity:1" /><path
   class="st3"
   d="m 10.1,36.2 h 16.5 c 0.5,0 0.9,0.4 0.9,0.9 v 16.5 c 0,0.5 -0.4,0.9 -0.9,0.9 H 10.1 C 9.6,54.5 9.2,54.1 9.2,53.6 V 37.1 c 0,-0.5 0.4,-0.9 0.9,-0.9 z"
   id="path30"
   style="fill:#d6d3e3;fill-opacity:1" />
</svg>
