<?xml version="1.0" encoding="UTF-8" standalone="no"?>
<!-- Generator: Adobe Illustrator 25.4.1, SVG Export Plug-In . SVG Version: 6.00 Build 0)  -->

<svg
   version="1.1"
   id="Layer_1"
   x="0px"
   y="0px"
   viewBox="0 0 16 16"
   style="enable-background:new 0 0 16 16;"
   xml:space="preserve"
   sodipodi:docname="user-home.svg"
   inkscape:version="1.2.2 (b0a8486541, 2022-12-01)"
   xmlns:inkscape="http://www.inkscape.org/namespaces/inkscape"
   xmlns:sodipodi="http://sodipodi.sourceforge.net/DTD/sodipodi-0.dtd"
   xmlns="http://www.w3.org/2000/svg"
   xmlns:svg="http://www.w3.org/2000/svg"><defs
   id="defs11" /><sodipodi:namedview
   id="namedview9"
   pagecolor="#ffffff"
   bordercolor="#000000"
   borderopacity="0.25"
   inkscape:showpageshadow="2"
   inkscape:pageopacity="0.0"
   inkscape:pagecheckerboard="0"
   inkscape:deskcolor="#d1d1d1"
   showgrid="false"
   inkscape:zoom="7.375"
   inkscape:cx="24.745763"
   inkscape:cy="-11.79661"
   inkscape:window-width="1920"
   inkscape:window-height="1133"
   inkscape:window-x="0"
   inkscape:window-y="0"
   inkscape:window-maximized="1"
   inkscape:current-layer="Layer_1" />
<style
   type="text/css"
   id="style2">
	.st0{fill:#2E3436;}
	.st1{fill:none;stroke:#2E3436;stroke-width:1.1391;stroke-linecap:round;stroke-linejoin:round;stroke-miterlimit:10;}
	.st2{fill:none;stroke:#2E3436;stroke-width:1.2;stroke-miterlimit:10;}
	.st3{fill:none;stroke:#2E3436;stroke-width:1.2;stroke-linecap:round;stroke-linejoin:round;stroke-miterlimit:10;}
	.st4{fill:none;stroke:#2E3436;stroke-width:1.1416;stroke-linecap:round;stroke-linejoin:round;stroke-miterlimit:10;}
	.st5{fill:none;stroke:#2E3436;stroke-width:1.1391;stroke-miterlimit:10;}
	.st6{fill:none;stroke:#2E3436;stroke-width:1.1361;stroke-miterlimit:10;}
</style>

<g
   id="g4186"><path
     id="path169"
     style="opacity:1;fill:#2e3436;fill-opacity:1;stroke:none;stroke-width:1.42983"
     d="M 7.9824219 1.9414062 A 5.935883 6.2321277 0 0 0 2.046875 8.1738281 A 5.935883 6.2321277 0 0 0 7.9824219 14.40625 A 5.935883 6.2321277 0 0 0 13.917969 8.1738281 A 5.935883 6.2321277 0 0 0 7.9824219 1.9414062 z M 7.9824219 3.2363281 A 4.7032571 4.9379845 0 0 1 12.685547 8.1738281 A 4.7032571 4.9379845 0 0 1 7.9824219 13.111328 A 4.7032571 4.9379845 0 0 1 3.2792969 8.1738281 A 4.7032571 4.9379845 0 0 1 7.9824219 3.2363281 z " /><rect
     style="opacity:1;fill:#2e3436;fill-opacity:1;stroke:none;stroke-width:0.518011"
     id="rect2727"
     width="1.1865011"
     height="4.889823"
     x="7.3480906"
     y="3.6865745"
     ry="0.20582163" /><rect
     style="opacity:1;fill:#2e3436;fill-opacity:1;stroke:none;stroke-width:0.435216"
     id="rect4181"
     width="1.1865011"
     height="3.4516397"
     x="2.4604297"
     y="-14.03187"
     ry="0.14528586"
     transform="rotate(120.15124)" /></g></svg>
