<?xml version="1.0" encoding="UTF-8" standalone="no"?>
<!-- Created with Inkscape (http://www.inkscape.org/) -->

<svg
   width="256"
   height="256"
   viewBox="0 0 67.733332 67.733335"
   version="1.1"
   id="svg8"
   inkscape:version="1.3 (0e150ed6c4, 2023-07-21)"
   sodipodi:docname="icon.svg"
   xmlns:inkscape="http://www.inkscape.org/namespaces/inkscape"
   xmlns:sodipodi="http://sodipodi.sourceforge.net/DTD/sodipodi-0.dtd"
   xmlns:xlink="http://www.w3.org/1999/xlink"
   xmlns="http://www.w3.org/2000/svg"
   xmlns:svg="http://www.w3.org/2000/svg"
   xmlns:rdf="http://www.w3.org/1999/02/22-rdf-syntax-ns#"
   xmlns:cc="http://creativecommons.org/ns#"
   xmlns:dc="http://purl.org/dc/elements/1.1/">
  <defs
     id="defs2">
    <path
       d="m 64.6,76.7 c -25.9,0 -48.4,21.2 -49.9,47.1 L 6.3,268 c -1.5,25.9 17.1,54.5 41.4,63.7 l 60.1,22.7 c 24.3,9.1 64,9.1 88.2,0 l 60.1,-22.7 C 280.4,322.5 299,293.9 297.5,268 L 289.1,123.7 C 287.6,97.8 265.1,76.6 239.2,76.6 H 64.6 Z"
       id="SVGID_1_"
       inkscape:connector-curvature="0" />
  </defs>
  <sodipodi:namedview
     id="base"
     pagecolor="#ffffff"
     bordercolor="#666666"
     borderopacity="1.0"
     inkscape:pageopacity="0.0"
     inkscape:pageshadow="2"
     inkscape:zoom="0.90509668"
     inkscape:cx="-249.69708"
     inkscape:cy="204.95048"
     inkscape:document-units="mm"
     inkscape:current-layer="g432"
     showgrid="false"
     inkscape:snap-page="true"
     showguides="true"
     inkscape:guide-bbox="true"
     inkscape:window-width="1920"
     inkscape:window-height="1127"
     inkscape:window-x="0"
     inkscape:window-y="0"
     inkscape:window-maximized="1"
     units="px"
     inkscape:snap-grids="false"
     inkscape:showpageshadow="2"
     inkscape:pagecheckerboard="0"
     inkscape:deskcolor="#d1d1d1">
    <sodipodi:guide
       position="228.44569,173.17142"
       orientation="1,0"
       id="guide473"
       inkscape:locked="false" />
  </sodipodi:namedview>
  <metadata
     id="metadata5">
    <rdf:RDF>
      <cc:Work
         rdf:about="">
        <dc:format>image/svg+xml</dc:format>
        <dc:type
           rdf:resource="http://purl.org/dc/dcmitype/StillImage" />
        <dc:title />
      </cc:Work>
    </rdf:RDF>
  </metadata>
  <g
     inkscape:label="Layer 1"
     inkscape:groupmode="layer"
     id="layer1"
     transform="translate(0,-229.26665)">
    <g
       id="g432"
       transform="matrix(0.46130674,0,0,0.46445121,30.973464,60.454999)">
      <g
         id="g1"
         inkscape:export-filename="g1.png"
         inkscape:export-xdpi="96"
         inkscape:export-ydpi="96">
        <path
           id="path91"
           d="m 6.271755,496.45779 c -6.77216352,0 -13.5040164,-0.97093 -18.66376,-2.91276 l -24.226609,-9.18324 c -10.762903,-4.08593 -18.986244,-16.7483 -18.300965,-28.27792 l 3.38608,-58.37631 c 0.685279,-11.8128 10.843526,-21.40061 22.614189,-21.40061 h 70.38213 c 11.770664,0 21.92891,9.58781 22.614189,21.40061 l 3.38608,58.37631 c 0.685279,11.52962 -7.538062,24.19199 -18.300965,28.27792 l -24.226608,9.18324 c -5.159744,1.94183 -11.891597,2.91276 -18.663761,2.91276 M -28.91931,381.36381 c -9.190791,0 -17.05134,7.48414 -17.615686,16.66739 l -3.386082,58.37631 c -0.524036,9.3046 6.369059,19.98468 15.076126,23.26153 l 24.226609,9.18323 c 9.1504822,3.47912 24.629713,3.47912 33.780196,0 l 24.226609,-9.18323 c 8.707067,-3.27685 15.600162,-13.95693 15.035815,-23.26153 L 59.038196,398.0312 C 58.51416,388.84795 50.613302,381.36381 41.422509,381.36381 Z"
           inkscape:connector-curvature="0"
           style="fill:#cccccc;fill-opacity:0.7340824;stroke-width:0.403826" />
        <g
           id="g335"
           transform="matrix(0.39263688,0,0,0.39404267,-53.369787,350.12643)"
           style="fill:#ebf3f8;fill-opacity:1">
          <defs
             id="defs311">
            <path
               d="m 64.6,76.7 c -25.9,0 -48.4,21.2 -49.9,47.1 L 6.3,268 c -1.5,25.9 17.1,54.5 41.4,63.7 l 60.1,22.7 c 24.3,9.1 64,9.1 88.2,0 l 60.1,-22.7 C 280.4,322.5 299,293.9 297.5,268 L 289.1,123.7 C 287.6,97.8 265.1,76.6 239.2,76.6 H 64.6 Z"
               id="path393"
               inkscape:connector-curvature="0" />
          </defs>
          <clipPath
             id="SVGID_2_">
            <use
               id="use313"
               style="overflow:visible"
               xlink:href="#SVGID_1_"
               x="0"
               y="0"
               width="100%"
               height="100%" />
          </clipPath>
          <linearGradient
             gradientTransform="matrix(-298.9616,-340.5978,-340.5978,298.9616,126355.73,-110257.84)"
             y2="370.1022"
             x2="1"
             y1="370.1022"
             x1="0"
             gradientUnits="userSpaceOnUse"
             id="SVGID_3_">
            <stop
               id="stop316"
               style="stop-color:#E2322E"
               offset="0" />
            <stop
               id="stop318"
               style="stop-color:#E86131"
               offset="0.1124" />
            <stop
               id="stop320"
               style="stop-color:#F08F33"
               offset="0.3315" />
            <stop
               id="stop322"
               style="stop-color:#FDC704"
               offset="0.7191" />
            <stop
               id="stop324"
               style="stop-color:#FDCA08"
               offset="0.7951" />
            <stop
               id="stop326"
               style="stop-color:#FED114"
               offset="0.8665" />
            <stop
               id="stop328"
               style="stop-color:#FEDD22"
               offset="0.9357" />
            <stop
               id="stop330"
               style="stop-color:#FEEC31"
               offset="1" />
          </linearGradient>
          <polygon
             id="polygon333"
             clip-path="url(#SVGID_2_)"
             points="170.9,-69.1 441.2,238.7 132.8,509.3 -137.4,201.5 "
             class="st0"
             style="fill:#ebf3f8;fill-opacity:1" />
        </g>
        <path
           id="path337"
           d="m 6.271755,494.89771 c -6.5962996,0 -13.1533354,-0.94571 -18.179087,-2.83711 l -23.597477,-8.94477 C -45.988214,479.136 -53.998006,466.80246 -53.330523,455.57225 l 3.298149,-56.86036 c 0.667483,-11.50604 10.561933,-20.84486 22.026929,-20.84486 h 68.5544 c 11.464997,0 21.359446,9.33882 22.026929,20.84486 l 3.298149,56.86036 c 0.667483,11.23021 -7.342309,23.56375 -17.825714,27.54358 l -23.597476,8.94477 c -5.025752,1.8914 -11.582788,2.83711 -18.179088,2.83711 m -34.2772,-112.10514 c -8.95212,0 -16.60854,7.28979 -17.158231,16.23456 l -3.29815,56.86035 c -0.510428,9.06298 6.203663,19.46571 14.684619,22.65746 l 23.597477,8.94476 c 8.9128566,3.38877 23.990113,3.38877 32.90297,0 l 23.597477,-8.94476 c 8.480956,-3.19175 15.195047,-13.59448 14.645355,-22.65746 l -3.298149,-56.86035 c -0.510428,-8.94477 -8.206111,-16.23456 -17.158232,-16.23456 z"
           inkscape:connector-curvature="0"
           style="fill:#2f3536;fill-opacity:1;stroke-width:0.393339" />
        <g
           id="g62"
           transform="translate(126.66759,-77.631046)"
           style="fill:#2f3536;fill-opacity:1">
          <path
             id="path339"
             d="m -72.313465,479.69882 c -0.471164,-1.37915 -1.884657,-3.82221 -3.180359,-5.47719 -1.295702,-1.65498 -3.415941,-3.58579 -4.711642,-4.33447 -1.295702,-0.74868 -7.145992,0.8669 -10.130032,2.24604 l -2.159503,0.98511 c -2.98404,1.37915 -5.457652,2.48247 -5.496916,2.52187 -0.03926,0.0394 -0.392637,0 -0.667483,-0.11821 -0.274846,-0.11821 -3.57299,-0.9457 -6.75335,-1.69438 l -5.69324,-1.33975 c -3.18036,-0.74868 -6.83188,-1.45795 -8.16685,-1.57617 -1.2957,-0.11821 -6.87114,0.82749 -10.0515,1.53677 l -6.08587,1.41855 c -3.18036,0.74868 -6.00735,1.37915 -6.28219,1.49736 -0.27485,0.0788 -1.02086,0.35464 -1.06012,0.31524 -0.0393,-0.0394 -2.63067,-1.22153 -5.57544,-2.56128 l -2.15951,-0.98511 c -2.98404,-1.37914 -6.63556,-2.56127 -8.12758,-2.67949 -1.49202,-0.11821 -5.37913,3.11294 -6.67483,4.76792 -1.2957,1.65498 -2.74846,4.09804 -3.18036,5.47719 -0.47116,1.37915 2.04172,6.77754 3.88711,9.49643 l 3.73005,5.556 c 1.80613,2.7189 2.82698,5.87124 2.23803,6.97456 -0.58896,1.14272 -1.41349,3.11294 -1.80613,4.45268 -0.39264,1.33975 0.0785,7.09277 0.58895,10.32392 l 1.17792,6.89575 c 0.54969,3.23115 1.57054,6.97455 2.27729,8.27489 0.70675,1.33975 6.32145,3.6646 9.46255,4.45268 l 1.41349,0.35464 c 3.18036,0.78809 7.34231,3.6252 9.22697,6.26528 l 2.55214,3.54639 c 1.92392,2.64008 4.39753,5.5954 5.53618,6.5017 1.13864,0.9063 5.92881,1.65498 7.81347,1.65498 1.88466,0 4.55459,-0.31524 5.96808,-0.70928 1.41349,-0.39404 5.45765,-4.76791 7.38158,-7.408 l 2.51287,-3.50698 c 1.92392,-2.64009 6.046609,-5.47719 9.226967,-6.26528 l 1.492021,-0.35464 c 3.180358,-0.78808 6.792618,-2.12783 8.049056,-2.91591 1.256438,-0.82749 3.141095,-6.58052 3.690786,-9.81167 l 1.177911,-6.89574 c 0.549692,-3.23115 0.942328,-7.01396 0.942328,-8.39311 -0.03926,-1.37915 -1.531283,-5.28017 -2.120239,-6.38349 -0.588955,-1.10332 0.392637,-4.25566 2.23803,-6.97456 l 3.730051,-5.556 c 1.727602,-2.7977 4.201214,-8.19609 3.769314,-9.57524 m -88.814465,6.30469 c -1.60981,-2.40366 -3.0233,-4.5709 -3.10183,-4.80732 v -0.23643 -0.31523 c 0.11779,-0.27583 1.2957,-1.852 2.59141,-3.50698 1.2957,-1.65498 2.55213,-3.07354 2.82698,-3.19175 0.23558,-0.11821 3.37668,1.10332 6.36072,2.48247 l 0.47116,0.19702 c 2.98404,1.37915 5.33986,2.56128 5.3006,2.64009 -0.0393,0.0788 -1.45276,2.67949 -2.98404,5.556 l -2.63067,4.92553 c -1.53128,2.87651 -7.18525,-1.30034 -8.83433,-3.7434 m 76.485667,22.38162 c 0.03926,0.78809 -0.392637,4.09804 -0.942329,7.32919 l -1.17791,6.89575 c -0.549692,3.23115 -1.177911,6.22587 -1.413493,6.61992 -0.235582,0.39404 -2.98404,1.37915 -5.339862,1.97021 -2.355821,0.59106 -4.201214,0.70928 -4.122687,0.23643 0.07853,-0.47285 -1.295702,-3.78281 -3.023306,-6.38349 -1.76686,-2.56128 -3.21962,-4.6103 -3.21962,-4.5315 0,0.0788 0.39264,2.20664 0.8638,4.49209 0.4319,2.28545 0.78528,4.72851 0.74601,5.43779 -0.0393,0.70928 -0.8638,2.32485 -1.09938,2.67949 -0.27485,0.35464 -1.45276,2.00962 -2.63067,3.62519 -1.17791,1.61558 -3.53373,4.92554 -5.22207,7.28979 -1.68834,2.36426 -3.49447,4.6103 -4.0049,4.96494 -0.51042,0.35464 -3.25888,0.66987 -5.14354,0.66987 -1.88466,0 -3.92637,-0.15762 -4.51532,-0.35464 -0.58896,-0.19702 -2.94478,-2.95532 -4.67238,-5.35898 -1.7276,-2.40366 -4.08342,-5.67421 -5.26134,-7.32919 -1.17791,-1.61558 -2.31655,-3.23115 -2.5914,-3.58579 -0.23558,-0.35464 -0.66748,-1.18213 -0.90306,-1.81259 -0.23559,-0.66988 0.11779,-3.97984 0.54969,-6.26528 0.4319,-2.28545 0.82453,-4.25566 0.82453,-4.33447 0,-0.0788 -1.41349,1.77319 -3.18035,4.37387 -1.76687,2.56128 -3.18036,5.08315 -3.1411,5.5166 0.0393,0.47285 -1.64907,1.18213 -4.0049,0.59106 -2.35582,-0.59106 -4.59385,-1.30034 -4.98648,-1.57617 -0.39264,-0.27583 -1.25644,-3.78281 -1.80613,-7.01396 l -1.17791,-6.89574 c -0.5497,-3.23115 -0.9816,-6.54111 -0.94233,-7.3292 0.0393,-0.78808 0.90306,-3.03413 1.33496,-3.86162 0.4319,-0.82749 2.04171,-3.82221 3.573,-6.73813 l 5.7325,-10.75736 c 1.53128,-2.87651 3.18036,-5.63481 3.65152,-6.14707 0.47116,-0.47285 1.76687,-1.10332 1.84539,-1.10332 0.0785,0 2.7092,-0.63046 5.88956,-1.33974 l 5.88955,-1.33975 c 3.18036,-0.74868 6.51777,-1.37915 7.4601,-1.45795 0.90307,-0.0788 5.45765,0.74868 8.63801,1.49736 l 5.49692,1.30034 c 3.18036,0.74868 5.81102,1.37915 5.88955,1.37915 0.0393,0 0.58896,0.31523 1.177912,0.63047 0.588955,0.31523 2.748458,3.7434 4.319005,6.65932 l 5.732499,10.75736 c 1.531284,2.87651 3.141095,5.91064 3.572995,6.73813 0.392637,0.82749 1.295702,3.07353 1.334966,3.86162 m 8.009792,-27.14954 c -0.07853,0.23643 -1.49202,2.36426 -3.101831,4.80732 -1.609811,2.40366 -7.303046,6.61992 -8.83433,3.74341 l -2.630667,-4.88613 c -1.531284,-2.87651 -2.826986,-5.31958 -2.905513,-5.39839 -0.03926,-0.0788 2.23803,-1.41855 5.222071,-2.7977 l 0.471164,-0.19702 c 2.98404,-1.37915 5.693235,-2.48247 6.007344,-2.48247 0.353373,0 1.884657,1.57617 3.180359,3.23115 1.295701,1.65498 2.473612,3.23115 2.591403,3.50698 v 0.31523 z"
             inkscape:connector-curvature="0"
             style="fill:#2f3536;fill-opacity:1;stroke-width:0.393339" />
          <path
             id="path341"
             d="m -128.73538,525.21075 c -0.70675,-1.41855 0,-2.56128 1.57054,-2.56128 h 13.46745 c 1.57055,0 2.27729,1.14273 1.57055,2.56128 l -7.0282,7.99907 c -0.70675,1.41855 -1.8454,1.41855 -2.55214,0 z"
             inkscape:connector-curvature="0"
             style="fill:#2f3536;fill-opacity:1;stroke-width:0.393339" />
          <path
             id="path343"
             d="m -120.41148,542.39101 c 0,0 0.94233,0.8669 2.12024,1.93081 l 4.55458,4.17685 c 1.17792,1.06392 2.43435,1.18213 2.82699,0.23643 0.39264,-0.9457 -0.35337,-2.44306 -1.64907,-3.30996 l -4.31901,-2.95532 c -1.2957,-0.9063 -2.35582,-1.65498 -2.35582,-1.69438 0,-0.0394 0,-1.41856 0,-2.99473 v -8.07787 c 0,-1.57617 -0.23558,-3.38877 -0.51043,-4.05864 h -0.66748 -0.66749 c -0.27484,0.63047 -0.51042,2.48247 -0.51042,4.05864 v 8.07787 c 0,1.57617 0,2.91592 0,2.91592 0,0.0394 -1.06012,0.86689 -2.35582,1.73379 l -4.31901,2.95532 c -1.2957,0.9063 -2.04171,2.36425 -1.64907,3.30996 0.39263,0.9457 1.64907,0.82748 2.82698,-0.23643 l 4.55459,-4.17685 c 1.17791,-1.02451 2.12024,-1.89141 2.12024,-1.89141"
             inkscape:connector-curvature="0"
             style="fill:#2f3536;fill-opacity:1;stroke-width:0.393339" />
          <path
             id="path345"
             d="m -145.42245,504.01126 c -1.68834,0.0394 -1.68834,0.27583 -0.0393,0.51225 l 14.01714,2.00962 c 1.68833,0.23643 2.90551,1.8126 2.74845,3.50698 l -1.80613,6.26528 c -0.15705,1.69438 0.35338,3.11293 1.17791,3.15234 0.78528,0.0394 1.45276,0.0394 1.45276,0 0,-0.0788 0.0785,-1.49736 0.15706,-3.19175 l 1.45275,-5.87123 c 0.0785,-1.69439 0.15706,-3.94043 0.19632,-5.00434 0.0393,-1.06392 -0.39264,-1.89141 -0.98159,-1.89141 -0.58896,0 -2.43435,0.0788 -4.12269,0.11821 z"
             inkscape:connector-curvature="0"
             style="fill:#2f3536;fill-opacity:1;stroke-width:0.393339" />
          <path
             id="path347"
             d="m -109.6925,503.61721 c -1.68833,-0.0394 -3.53373,-0.11821 -4.12268,-0.11821 -0.58896,0 -1.02086,0.82749 -0.9816,1.89141 0.0393,1.06391 0.15706,3.30995 0.23559,5.00434 l 1.45275,5.87123 c 0.0785,1.69439 0.11779,3.11294 0.15706,3.19175 0,0.0788 0.66748,0.0788 1.45275,0 0.78528,-0.0394 1.33497,-1.49736 1.17792,-3.15234 l -1.76687,-6.26528 c -0.15706,-1.69438 1.09938,-3.27055 2.74846,-3.50698 l 14.017134,-2.00962 c 1.649075,-0.23642 1.649075,-0.47285 -0.03926,-0.51225 z"
             inkscape:connector-curvature="0"
             style="fill:#2f3536;fill-opacity:1;stroke-width:0.393339" />
          <path
             id="path349"
             d="m -132.81881,506.13909 c 0,1.06391 -0.8638,1.97021 -1.96318,1.97021 -1.06012,0 -1.92392,-0.86689 -1.92392,-1.97021 0,-1.06392 0.8638,-1.93081 1.92392,-1.93081 1.09938,-0.0394 1.96318,0.86689 1.96318,1.93081"
             inkscape:connector-curvature="0"
             style="fill:#2f3536;fill-opacity:1;stroke-width:0.393339" />
          <path
             id="path351"
             d="m -104.11705,506.13909 c 0,1.06391 -0.8638,1.97021 -1.96319,1.97021 -1.06012,0 -1.96318,-0.86689 -1.96318,-1.97021 0,-1.06392 0.8638,-1.93081 1.96318,-1.93081 1.06012,-0.0394 1.96319,0.86689 1.96319,1.93081"
             inkscape:connector-curvature="0"
             style="fill:#2f3536;fill-opacity:1;stroke-width:0.393339" />
          <path
             id="path353"
             d="m -128.14643,530.17569 c -10.71899,2.60068 -21.39871,8.23549 -29.64408,15.60409 -0.58896,0.51226 0.15705,1.30034 0.74601,0.9063 4.59385,-3.11294 8.99138,-6.38349 13.86008,-8.98418 4.8687,-2.60068 9.97298,-4.57089 15.27357,-6.14706 0.82454,-0.27583 0.62822,-1.57617 -0.23558,-1.37915"
             inkscape:connector-curvature="0"
             style="fill:#2f3536;fill-opacity:1;stroke-width:0.393339" />
          <path
             id="path355"
             d="m -127.87158,533.9979 c -4.59385,0.35464 -8.55949,2.99473 -11.97543,5.91064 -3.65152,3.07354 -7.14599,6.69873 -9.77666,10.67856 -0.31411,0.47285 0.31411,1.06392 0.74601,0.66987 6.28219,-6.14706 11.97543,-14.54017 21.24166,-16.15575 0.66748,-0.11821 0.47116,-1.14272 -0.23558,-1.10332"
             inkscape:connector-curvature="0"
             style="fill:#2f3536;fill-opacity:1;stroke-width:0.393339" />
          <path
             id="path357"
             d="m -127.08631,537.74131 c -4.4368,1.14272 -7.81347,4.29506 -10.71899,7.72324 -3.18035,3.7434 -6.00734,7.99906 -8.00979,12.45174 -0.23558,0.51226 0.54969,0.9063 0.8638,0.47285 5.06502,-7.17157 9.3055,-16.39217 18.17909,-19.58392 0.62822,-0.23642 0.27485,-1.22153 -0.31411,-1.06391"
             inkscape:connector-curvature="0"
             style="fill:#2f3536;fill-opacity:1;stroke-width:0.393339" />
          <path
             id="path359"
             d="m -113.02991,531.47603 c 5.41839,1.61558 10.64046,3.58579 15.626948,6.30468 4.79017,2.60068 9.14844,5.83183 13.663764,8.90537 0.628219,0.43344 1.217174,-0.47285 0.667482,-0.9457 -8.20611,-7.28979 -18.846574,-12.9246 -29.487024,-15.52529 -0.82454,-0.19702 -1.33497,1.02452 -0.47117,1.26094"
             inkscape:connector-curvature="0"
             style="fill:#2f3536;fill-opacity:1;stroke-width:0.393339" />
          <path
             id="path361"
             d="m -113.10844,535.10122 c 9.22697,1.61558 14.920204,9.96928 21.163131,16.07694 0.471164,0.47286 1.099383,-0.11821 0.74601,-0.63046 -2.669931,-3.97984 -6.164399,-7.60503 -9.815921,-10.67856 -3.41594,-2.91592 -7.42084,-5.5166 -11.97543,-5.87124 -0.74601,-0.0394 -0.82453,0.98511 -0.11779,1.10332"
             inkscape:connector-curvature="0"
             style="fill:#2f3536;fill-opacity:1;stroke-width:0.393339" />
          <path
             id="path363"
             d="m -114.05076,538.80522 c 8.83432,3.19175 13.11407,12.41235 18.179082,19.58392 0.353373,0.47286 1.06012,-0.0394 0.824538,-0.55165 -1.963185,-4.37388 -4.750907,-8.51133 -7.81347,-12.21533 -2.86625,-3.46757 -6.36072,-6.77753 -10.79752,-7.88085 -0.66748,-0.15762 -1.06012,0.82749 -0.39263,1.06391"
             inkscape:connector-curvature="0"
             style="fill:#2f3536;fill-opacity:1;stroke-width:0.393339" />
          <path
             id="path365"
             d="m -135.68506,484.979 c 0,2.16723 -1.41349,3.94042 -3.14109,3.94042 -1.7276,0 -3.1411,-1.77319 -3.1411,-3.94042 0,-2.16724 1.4135,-3.94043 3.1411,-3.94043 1.7276,0 3.14109,1.77319 3.14109,3.94043"
             inkscape:connector-curvature="0"
             style="fill:#2f3536;fill-opacity:1;stroke-width:0.393339" />
          <path
             id="path367"
             d="m -139.92554,492.54461 c 0,1.45796 -1.17791,2.64009 -2.63066,2.64009 -1.45276,0 -2.63067,-1.18213 -2.63067,-2.64009 0,-1.45795 1.17791,-2.64008 2.63067,-2.64008 1.45275,0 2.63066,1.18213 2.63066,2.64008"
             inkscape:connector-curvature="0"
             style="fill:#2f3536;fill-opacity:1;stroke-width:0.393339" />
          <path
             id="path369"
             d="m -127.98937,483.99389 c -0.51043,1.65498 -1.60982,2.7977 -2.43435,2.52187 -0.82454,-0.27583 -1.06012,-1.81259 -0.54969,-3.46757 0.51042,-1.65498 1.60981,-2.79771 2.43434,-2.52188 0.82454,0.23643 1.06012,1.8126 0.5497,3.46758"
             inkscape:connector-curvature="0"
             style="fill:#2f3536;fill-opacity:1;stroke-width:0.393339" />
          <path
             id="path371"
             d="m -131.95501,493.3721 c 0,0.8669 -0.82453,1.57618 -1.84539,1.57618 -1.02086,0 -1.84539,-0.70928 -1.84539,-1.57618 0,-0.86689 0.82453,-1.57617 1.84539,-1.57617 1.02086,0 1.84539,0.66988 1.84539,1.57617"
             inkscape:connector-curvature="0"
             style="fill:#2f3536;fill-opacity:1;stroke-width:0.393339" />
          <path
             id="path373"
             d="m -93.319538,523.43756 c -0.628219,1.30034 -0.117791,2.87651 1.17791,3.50698 1.295702,0.63047 2.86625,0.11821 3.494469,-1.18213 0.628219,-1.30034 0.117791,-2.87651 -1.177911,-3.50698 -1.295702,-0.63047 -2.866249,-0.11821 -3.494468,1.18213"
             inkscape:connector-curvature="0"
             style="fill:#2f3536;fill-opacity:1;stroke-width:0.393339" />
          <path
             id="path375"
             d="m -92.691319,516.73883 c -0.274846,1.73379 0.196318,3.23115 1.060119,3.34937 0.863802,0.11821 1.766866,-1.14273 2.041712,-2.87651 0.274846,-1.73379 -0.196318,-3.23115 -1.060119,-3.34937 -0.863802,-0.15761 -1.80613,1.14273 -2.041712,2.87651"
             inkscape:connector-curvature="0"
             style="fill:#2f3536;fill-opacity:1;stroke-width:0.393339" />
          <path
             id="path377"
             d="m -97.520753,520.71867 c -0.392637,0.78808 0.03926,1.77319 0.942329,2.24604 0.903065,0.47285 1.963184,0.19702 2.355821,-0.59107 0.392637,-0.78808 -0.03926,-1.77319 -0.942329,-2.24604 -0.903064,-0.43345 -1.963184,-0.19702 -2.355821,0.59107"
             inkscape:connector-curvature="0"
             style="fill:#2f3536;fill-opacity:1;stroke-width:0.393339" />
        </g>
      </g>
      <path
         class="st0"
         d="m -262.70496,-206.57864 h -31.1 c -3.7,0.3 -6.6,3.3 -6.9,6.89999 v 31.80001 c 0.3,3.9 3.3,6.8 7.1,7.1 h 0.2 l 30.5,-0.1 c 3.9,-0.2 7,-3.4 7,-7.30001 v -31.29999 c 0,-3.8 -2.9,-6.9 -6.8,-7.1 z"
         id="path2"
         style="opacity:0.3;fill:#ffffff;enable-background:new"
         clip-path="url(#SVGID_2_)"
         transform="matrix(0.57355185,0,0,0.56966874,279.68676,525.83668)" />
    </g>
  </g>
  <style
     id="style306"
     type="text/css">&#10;	.st0{clip-path:url(#SVGID_2_);fill:url(#SVGID_3_);}&#10;	.st1{fill:none;}&#10;</style>
</svg>
