<?xml version="1.0" encoding="UTF-8" standalone="no"?>
<!-- Created with Inkscape (http://www.inkscape.org/) -->

<svg
   width="64"
   height="64"
   viewBox="0 0 16.933333 16.933333"
   version="1.1"
   id="svg1"
   inkscape:version="1.3 (0e150ed6c4, 2023-07-21)"
   sodipodi:docname="audio-volume-low-symbolic.svg"
   xmlns:inkscape="http://www.inkscape.org/namespaces/inkscape"
   xmlns:sodipodi="http://sodipodi.sourceforge.net/DTD/sodipodi-0.dtd"
   xmlns="http://www.w3.org/2000/svg"
   xmlns:svg="http://www.w3.org/2000/svg">
  <sodipodi:namedview
     id="namedview1"
     pagecolor="#ffffff"
     bordercolor="#000000"
     borderopacity="0.25"
     inkscape:showpageshadow="2"
     inkscape:pageopacity="0.0"
     inkscape:pagecheckerboard="0"
     inkscape:deskcolor="#d1d1d1"
     inkscape:document-units="px"
     inkscape:zoom="2.8284273"
     inkscape:cx="38.006987"
     inkscape:cy="31.643026"
     inkscape:window-width="920"
     inkscape:window-height="635"
     inkscape:window-x="0"
     inkscape:window-y="0"
     inkscape:window-maximized="0"
     inkscape:current-layer="layer1" />
  <defs
     id="defs1">
    <clipPath
       clipPathUnits="userSpaceOnUse"
       id="clipPath37">
      <path
         id="path37"
         style="fill:#ff0000;fill-opacity:1;fill-rule:nonzero;stroke:none;stroke-width:0.264583"
         d="M 2.9279865,2.2939168 V 14.753104 H 6.3133096 V 2.2939168 Z M 4.7604327,12.974918 c 0.00167,-0.0012 0.00335,5.56e-4 0.00156,0.0016 -0.00493,0.0028 -0.010099,0.0054 -0.014986,0.0083 0.00454,-0.0032 0.00896,-0.0066 0.013435,-0.0098 z m -0.026355,0.01809 c -0.01152,0.0077 -0.023461,0.01527 -0.03514,0.02274 0.011668,-0.0078 0.023302,-0.01529 0.03514,-0.02274 z" />
    </clipPath>
    <clipPath
       clipPathUnits="userSpaceOnUse"
       id="clipPath43">
      <path
         id="path44"
         style="fill:#ff0000;fill-opacity:1;fill-rule:nonzero;stroke:none;stroke-width:0.264583"
         d="m 5.5742657,19.276003 v 14.181564 h 7.1416833 c -0.0012,-0.0286 -0.0023,-0.05722 -0.0036,-0.08578 -0.0034,-0.08174 -0.0071,-0.163166 -0.0093,-0.244946 -0.002,-0.07822 -0.0038,-0.156393 -0.0057,-0.234611 -0.0018,-0.07694 -0.0044,-0.154104 -0.0078,-0.230995 -0.0031,-0.07936 -0.0064,-0.158927 -0.01085,-0.238228 -0.0042,-0.07744 -0.0088,-0.154678 -0.01447,-0.232026 -0.005,-0.08197 -0.0091,-0.16391 -0.01189,-0.245981 -0.0027,-0.08248 -0.004,-0.165039 -0.0062,-0.247531 -0.0022,-0.08318 -0.004,-0.166447 -0.0072,-0.249597 -0.0026,-0.08274 -0.0054,-0.165296 -0.0078,-0.248047 -0.0021,-0.08973 -0.0037,-0.179475 -0.0041,-0.269235 -5.33e-4,-0.08913 7.8e-5,-0.178554 10e-4,-0.267684 7.38e-4,-0.08943 0.0023,-0.178808 0.0052,-0.2682 0.003,-0.09504 0.0063,-0.189717 0.0098,-0.284737 0.0035,-0.09688 0.0071,-0.194037 0.0098,-0.290938 0.0031,-0.101045 0.0069,-0.201772 0.0098,-0.302824 0.0027,-0.105267 0.0051,-0.210989 0.0078,-0.316259 0.0027,-0.111175 0.0057,-0.222165 0.0093,-0.333314 0.0032,-0.1157 0.0062,-0.23155 0.0088,-0.347266 0.0026,-0.122123 0.0057,-0.244303 0.0098,-0.366384 0.0036,-0.128072 0.0071,-0.255926 0.01189,-0.383958 0.0054,-0.134813 0.01353,-0.269468 0.02222,-0.404109 0.008,-0.137975 0.01563,-0.275934 0.02325,-0.413927 0.0083,-0.144857 0.01679,-0.289817 0.02636,-0.4346 0.0087,-0.142126 0.01753,-0.283964 0.02119,-0.426331 0.0041,-0.158636 0.0046,-0.317349 -0.0021,-0.47594 -0.0079,-0.189057 -0.02056,-0.378252 -0.02636,-0.567406 -0.0058,-0.214947 -0.0068,-0.429985 5.17e-4,-0.644922 0.0079,-0.235186 0.01726,-0.470084 0.02119,-0.705383 0.0029,-0.223808 0.0038,-0.447976 0.0057,-0.671794 0.0016,-0.226664 0.0026,-0.453394 0.0036,-0.680062 8.28e-4,-0.226262 7.56e-4,-0.452247 0,-0.678511 -1.95e-4,-0.217812 -4.16e-4,-0.435894 0,-0.653707 -9.5e-5,-0.19754 -0.0013,-0.394673 -0.0021,-0.592212 -8.01e-4,-0.192817 -0.0017,-0.385962 -0.0031,-0.578776 -0.0011,-0.184444 -0.0019,-0.369006 -0.001,-0.553455 1.5e-5,-0.004 -1.5e-5,-0.0079 0,-0.01188 z m 7.2657063,0 c -1.6e-5,0.0041 1.5e-5,0.0083 0,0.0124 -8.2e-4,0.184319 -8.4e-5,0.368623 0.001,0.552938 0.0014,0.192839 0.0023,0.385417 0.0031,0.578259 7.93e-4,0.197588 0.002,0.395139 0.0021,0.592729 -4.13e-4,0.217807 -1.94e-4,0.4359 0,0.653707 7.59e-4,0.226324 8.31e-4,0.452703 0,0.679028 -9.95e-4,0.226716 -0.0025,0.453349 -0.0041,0.680062 -0.0019,0.223895 -0.0028,0.447909 -0.0057,0.671794 -0.0039,0.235574 -0.01272,0.470954 -0.02067,0.706416 -0.0073,0.214127 -0.0063,0.428204 -5.16e-4,0.642338 0.0058,0.188951 0.0179,0.377519 0.02584,0.566375 0.0067,0.159493 0.0061,0.318984 0.0021,0.478525 -0.0037,0.142841 -0.01195,0.285798 -0.02067,0.428395 -0.0096,0.144737 -0.01853,0.289274 -0.02687,0.434083 -0.0076,0.137999 -0.01527,0.27595 -0.02325,0.41393 -0.0087,0.134409 -0.01627,0.26901 -0.0217,0.403593 -0.0048,0.127862 -0.0083,0.25605 -0.01189,0.383955 -0.0041,0.121992 -0.0072,0.243835 -0.0098,0.365869 -0.0026,0.115803 -0.0056,0.231476 -0.0088,0.347265 -0.0036,0.111104 -0.0066,0.222184 -0.0093,0.333312 -0.0026,0.105288 -0.0056,0.21046 -0.0083,0.315743 -0.0029,0.101129 -0.0062,0.202221 -0.0093,0.303342 -0.0027,0.09698 -0.0063,0.193987 -0.0098,0.290939 -0.0035,0.09496 -0.0068,0.190272 -0.0098,0.285252 -0.0029,0.08908 -0.005,0.178049 -0.0057,0.267169 -9.55e-4,0.08894 -0.001,0.17771 -5.17e-4,0.266649 4.4e-4,0.08953 0.0015,0.179218 0.0036,0.268719 0.0023,0.08264 0.0056,0.165415 0.0083,0.248047 0.0032,0.08322 0.0045,0.166346 0.0067,0.249597 0.0022,0.08242 0.0035,0.164603 0.0062,0.247013 0.0028,0.08169 0.0074,0.163367 0.0124,0.244946 0.0057,0.07745 0.01031,0.155003 0.01447,0.232545 0.0045,0.0795 0.0073,0.159173 0.01033,0.238744 0.0033,0.07709 0.0064,0.154371 0.0083,0.23151 0.0019,0.0782 0.0032,0.156411 0.0052,0.234611 0.0022,0.08157 0.0059,0.16291 0.0093,0.24443 0.0014,0.02911 0.0024,0.05823 0.0036,0.08733 h 7.000607 V 19.276003 h -6.690031 -5.17e-4 c -0.0041,0.09351 -0.0077,0.187021 -0.01085,0.280603 -0.002,0.03704 -0.0042,0.07406 -0.0062,0.111104 -1.6e-4,0.003 -0.0033,0.003 -0.0031,0 0.0026,-0.03701 0.0056,-0.07409 0.0083,-0.111104 0.0036,-0.09359 0.0077,-0.187084 0.01189,-0.280603 z m 0.01189,0.8816 h 5.16e-4 c -7.94e-4,0.0022 -0.0014,0.0048 -0.0026,0.0078 -7.56e-4,0.0019 -0.0032,0.0012 -0.0021,-5.29e-4 0.0017,-0.0028 0.0028,-0.0051 0.0041,-0.0072 z" />
    </clipPath>
  </defs>
  <g
     inkscape:label="Layer 1"
     inkscape:groupmode="layer"
     id="layer1">
    <path
       class="st0"
       d="M 8.466666,8.4666666"
       id="path346"
       style="fill:#2f3536;stroke-width:0.264583" />
    <path
       class="st38"
       d="M 8.466666,8.4666666"
       id="path347"
       style="fill:#e30613;stroke-width:0.264583" />
    <line
       class="st38"
       x1="8.4666662"
       y1="8.4666672"
       x2="8.4666662"
       y2="8.4666672"
       id="line347"
       style="fill:#e30613;stroke-width:0.264583" />
    <path
       class="st0"
       d="M 8.466666,8.4666666"
       id="path348"
       style="fill:#2f3536;stroke-width:0.264583" />
    <path
       class="st38"
       d="M 8.466666,8.4666666"
       id="path351"
       style="fill:#e30613;stroke-width:0.264583" />
    <line
       class="st38"
       x1="8.4666662"
       y1="8.4666672"
       x2="8.4666662"
       y2="8.4666672"
       id="line351"
       style="fill:#e30613;stroke-width:0.264583" />
    <path
       class="st0"
       d="M 15.994062,8.4734496"
       id="path366"
       style="fill:#2f3536;stroke-width:0.264583" />
    <path
       class="st0"
       d="M 7.44802,8.4734496"
       id="path367"
       style="fill:#2f3536;stroke-width:0.264583" />
    <line
       class="st38"
       x1="7.5803118"
       y1="8.4734497"
       x2="7.5803118"
       y2="8.4734497"
       id="line367"
       style="fill:#e30613;stroke-width:0.264583" />
    <path
       class="st38"
       d="M 7.580312,8.4734496"
       id="path368"
       style="fill:#e30613;stroke-width:0.264583" />
    <path
       class="st0"
       d="M 15.994062,8.4734496"
       id="path369"
       style="fill:#2f3536;stroke-width:0.264583" />
    <line
       class="st0"
       x1="15.994061"
       y1="8.4734497"
       x2="15.994061"
       y2="8.4734497"
       id="line369"
       style="fill:#2f3536;stroke-width:0.264583" />
    <path
       class="st0"
       d="m 11.284479,8.4734496 c -0.02646,0.47625 -0.185209,0.873125 -0.502709,1.190625 -0.238125,0.238125 -0.582083,0.238125 -0.820208,0 -0.211667,-0.211667 -0.238125,-0.555625 -0.02646,-0.79375 0.264583,-0.291042 0.264583,-0.529167 0,-0.820208 -0.211667,-0.238125 -0.211667,-0.608542 0.02646,-0.820209 0.238125,-0.211666 0.582083,-0.211666 0.820208,0.02646 0.343959,0.343959 0.502709,0.740834 0.502709,1.217084 z"
       id="path372"
       style="fill:#000000;fill-opacity:1;stroke-width:0.264583" />
    <g
       id="g373"
       transform="matrix(0.26458333,0,0,0.26458333,-20.068646,-0.1784252)"
       style="fill:#000000;fill-opacity:1">
      <path
         class="st0"
         d="m 101.4,57.3 c -1.7,0 -3.3,-0.5 -4.7,-1.5 L 90.1,51 c -0.7,-0.5 -1.5,-0.8 -2.4,-0.8 h -0.2 c -4.5,0 -8.1,-3.6 -8.1,-8.1 V 24 c 0,-4.5 3.6,-8.1 8.1,-8.1 1,0 1.9,-0.3 2.6,-0.9 l 6.1,-5.1 c 2.4,-2 5.7,-2.4 8.6,-1.1 2.9,1.3 4.7,4.1 4.7,7.3 v 33.1 c 0,3.1 -1.7,5.8 -4.4,7.2 -1.2,0.6 -2.5,0.9 -3.7,0.9 z m 0,-45.3 c -0.9,0 -1.8,0.3 -2.6,1 l -6.1,5.1 c -1.4,1.2 -3.3,1.9 -5.2,1.9 -2.3,0 -4.1,1.8 -4.1,4.1 v 18.1 c 0,2.3 1.8,4.1 4.1,4.1 h 0.2 c 1.7,0 3.4,0.5 4.7,1.5 l 6.6,4.8 c 1.3,0.9 2.9,1 4.3,0.3 1.4,-0.7 2.2,-2.1 2.2,-3.6 V 16.1 c 0,-1.6 -0.9,-3 -2.3,-3.7 -0.7,-0.3 -1.3,-0.4 -1.8,-0.4 z"
         id="path373"
         style="fill:#000000;fill-opacity:1" />
    </g>
    <path
       class="st8"
       d="m 6.760104,12.997825 c -0.02646,0 -0.05292,0 -0.07938,-0.02646 l -1.74625,-1.27 C 4.405307,11.33095 3.796765,11.119283 3.135307,11.119283 h -0.05292 c -0.07937,0 -0.15875,-0.07937 -0.15875,-0.15875 V 6.1715746 c 0,-0.07938 0.07938,-0.15875 0.15875,-0.15875 0.714375,0 1.402292,-0.264583 1.957917,-0.714375 l 1.613958,-1.349375 c 0.05292,-0.05292 0.07937,-0.05292 0.07937,-0.05292 0.02646,0 0.05292,0 0.07938,0.02646 0.05292,0.02646 0.07937,0.07938 0.07937,0.132292 v 8.7577074 c 0,0.05292 -0.02646,0.105834 -0.07937,0.132292 0,0.05292 -0.02646,0.05292 -0.05292,0.05292 z"
       id="path374"
       style="opacity:0.5;fill:#b5b5b5;fill-opacity:0.501961;stroke-width:0.264583" />
  </g>
</svg>
