<?xml version="1.0" encoding="UTF-8" standalone="no"?>
<!-- Generator: Adobe Illustrator 25.4.1, SVG Export Plug-In . SVG Version: 6.00 Build 0)  -->

<svg
   version="1.1"
   id="Layer_1"
   x="0px"
   y="0px"
   viewBox="0 0 64 64"
   style="enable-background:new 0 0 64 64;"
   xml:space="preserve"
   sodipodi:docname="audio-volume-muted-symbolic.svg"
   inkscape:version="1.3 (0e150ed6c4, 2023-07-21)"
   xmlns:inkscape="http://www.inkscape.org/namespaces/inkscape"
   xmlns:sodipodi="http://sodipodi.sourceforge.net/DTD/sodipodi-0.dtd"
   xmlns="http://www.w3.org/2000/svg"
   xmlns:svg="http://www.w3.org/2000/svg"><defs
   id="defs5">&#10;	&#10;	&#10;	&#10;<clipPath
   clipPathUnits="userSpaceOnUse"
   id="clipPath37"><path
     id="path37"
     style="fill:#ff0000;fill-opacity:1;fill-rule:nonzero;stroke:none;stroke-width:0.264583"
     d="M 2.9279865,2.2939168 V 14.753104 H 6.3133096 V 2.2939168 Z M 4.7604327,12.974918 c 0.00167,-0.0012 0.00335,5.56e-4 0.00156,0.0016 -0.00493,0.0028 -0.010099,0.0054 -0.014986,0.0083 0.00454,-0.0032 0.00896,-0.0066 0.013435,-0.0098 z m -0.026355,0.01809 c -0.01152,0.0077 -0.023461,0.01527 -0.03514,0.02274 0.011668,-0.0078 0.023302,-0.01529 0.03514,-0.02274 z" /></clipPath><clipPath
   clipPathUnits="userSpaceOnUse"
   id="clipPath1"><path
     id="path1-3"
     style="fill:#ff0000;fill-opacity:1;fill-rule:nonzero;stroke:none;stroke-width:0.264583"
     d="M 2.9279865,2.2939168 V 14.753104 H 6.3133096 V 2.2939168 Z M 4.7604327,12.974918 c 0.00167,-0.0012 0.00335,5.56e-4 0.00156,0.0016 -0.00493,0.0028 -0.010099,0.0054 -0.014986,0.0083 0.00454,-0.0032 0.00896,-0.0066 0.013435,-0.0098 z m -0.026355,0.01809 c -0.01152,0.0077 -0.023461,0.01527 -0.03514,0.02274 0.011668,-0.0078 0.023302,-0.01529 0.03514,-0.02274 z" /></clipPath></defs><sodipodi:namedview
   id="namedview5"
   pagecolor="#ffffff"
   bordercolor="#000000"
   borderopacity="0.25"
   inkscape:showpageshadow="2"
   inkscape:pageopacity="0.0"
   inkscape:pagecheckerboard="0"
   inkscape:deskcolor="#d1d1d1"
   inkscape:zoom="7.4921876"
   inkscape:cx="16.216892"
   inkscape:cy="64.33368"
   inkscape:window-width="2194"
   inkscape:window-height="1154"
   inkscape:window-x="0"
   inkscape:window-y="0"
   inkscape:window-maximized="1"
   inkscape:current-layer="Layer_1" />&#10;<style
   type="text/css"
   id="style1">&#10;	.st0{fill:#FFFFFF;}&#10;	.st1{clip-path:url(#SVGID_00000078723183960586419300000000443750667986328208_);}&#10;	.st2{opacity:0.5;}&#10;	.st3{fill:#B5B5B5;}&#10;	.st4{fill:#B5B5B5;fill-opacity:0.5;}&#10;	.st5{fill:none;stroke:#000000;stroke-width:3.9361;stroke-linecap:round;stroke-linejoin:round;stroke-miterlimit:10;}&#10;	.st6{fill:none;stroke:#000000;stroke-width:4.046;stroke-linecap:round;stroke-linejoin:round;stroke-miterlimit:10;}&#10;	.st7{stroke:#000000;stroke-width:0.8;stroke-miterlimit:10;}&#10;	.st8{fill:#2E3436;}&#10;	.st9{stroke:#000000;stroke-width:1.4;stroke-miterlimit:10;}&#10;	.st10{fill:#929495;}&#10;	.st11{opacity:0.915;fill:url(#SVGID_00000015347385855791078460000003258564366028765088_);enable-background:new    ;}&#10;	.st12{opacity:0.542;fill:#A5A0A0;enable-background:new    ;}&#10;	.st13{opacity:0.915;fill:url(#SVGID_00000145021575098835279090000001785412768574494873_);enable-background:new    ;}&#10;	.st14{opacity:0.915;fill:url(#SVGID_00000160192377220029967340000013282381321498304142_);enable-background:new    ;}&#10;	.st15{fill:none;stroke:#000000;stroke-width:2.1848;stroke-linecap:round;stroke-miterlimit:10;}&#10;	.st16{fill:#593E3E;}&#10;	.st17{fill:none;stroke:#000000;stroke-width:4.1037;stroke-linecap:round;stroke-linejoin:round;stroke-miterlimit:10;}&#10;	.st18{fill:none;stroke:#FFFFFF;stroke-width:3.9361;stroke-linecap:round;stroke-linejoin:round;stroke-miterlimit:10;}&#10;	.st19{fill:none;stroke:#B5B5B5;stroke-width:3.9361;stroke-linecap:round;stroke-linejoin:round;stroke-miterlimit:10;}&#10;	.st20{fill:none;stroke:#B5B5B5;stroke-width:3.3687;stroke-linecap:round;stroke-linejoin:round;stroke-miterlimit:10;}&#10;	.st21{fill:none;stroke:#B5B5B5;stroke-width:4.046;stroke-linecap:round;stroke-linejoin:round;stroke-miterlimit:10;}&#10;	.st22{fill:none;}&#10;	.st23{fill:none;stroke:#000000;stroke-width:3.0507;stroke-linecap:round;stroke-linejoin:round;stroke-miterlimit:10;}&#10;	.st24{fill:none;stroke:#FFFFFF;stroke-width:1.798;stroke-linecap:round;stroke-linejoin:round;stroke-miterlimit:10;}&#10;	.st25{fill:none;stroke:#000000;stroke-width:2.8832;stroke-linecap:round;stroke-linejoin:round;stroke-miterlimit:10;}&#10;	.st26{fill:none;stroke:#000000;stroke-linecap:round;stroke-linejoin:round;stroke-miterlimit:10;}&#10;	.st27{fill:none;stroke:#000000;stroke-width:3.2879;stroke-linecap:round;stroke-linejoin:round;stroke-miterlimit:10;}&#10;	.st28{fill:none;stroke:#000000;stroke-width:2.7451;stroke-miterlimit:10;}&#10;	.st29{fill:none;stroke:#000000;stroke-width:3.7534;stroke-linecap:round;stroke-linejoin:round;stroke-miterlimit:10;}&#10;	.st30{fill:none;stroke:#FFFFFF;stroke-width:0.9655;stroke-linecap:round;stroke-linejoin:round;stroke-miterlimit:10;}&#10;	.st31{fill:none;stroke:#B5B5B5;stroke-width:3.6647;stroke-linecap:round;stroke-linejoin:round;stroke-miterlimit:10;}&#10;	.st32{fill:none;stroke:#000000;stroke-width:3.6664;stroke-linecap:round;stroke-linejoin:round;stroke-miterlimit:10;}&#10;	.st33{fill:#45F2FF;}&#10;	.st34{opacity:0.5;fill:#B5B5B5;}&#10;</style>&#10;&#10;<path
   class="st0"
   d="M 60.45,31.95"
   id="path427"
   style="fill:#2f3536" /><path
   class="st40"
   d="M 28.15,31.95"
   id="path428"
   style="fill:#b5b5b5" /><line
   class="st40"
   x1="28.650005"
   y1="31.950001"
   x2="28.650005"
   y2="31.950001"
   id="line428"
   style="fill:#b5b5b5" /><path
   class="st40"
   d="M 28.65,31.95"
   id="path429"
   style="fill:#b5b5b5" /><path
   class="st38"
   d="M 60.45,31.95"
   id="path430"
   style="fill:#e30613" /><line
   class="st38"
   x1="60.449993"
   y1="31.950001"
   x2="60.449993"
   y2="31.950001"
   id="line430"
   style="fill:#e30613" /><path
   class="st40"
   d="m 50.85,33.25 c -0.2,0.8 -0.3,1.6 -0.5,2.4 -0.7,2.7 -2,5 -4,7 -0.9,0.9 -2.3,1 -3.1,0.1 -0.9,-0.9 -0.9,-2.2 0,-3.1 2.1,-2.2 3.2,-4.8 3.2,-7.8 0,-2.8 -1,-5.3 -2.9,-7.3 -0.6,-0.6 -0.9,-1.3 -0.8,-2.2 0.2,-0.8 0.7,-1.4 1.5,-1.6 0.8,-0.3 1.6,-0.1 2.2,0.5 2,2 3.4,4.5 4,7.3 0.2,0.7 0.3,1.4 0.4,2.1 0,0.8 0,1.7 0,2.6 z"
   id="path431"
   style="fill:#b5b5b5;opacity:0.5" /><path
   class="st40"
   d="m 49.55,53.95 c -0.6,0 -1.1,-0.2 -1.5,-0.6 -1,-1 -0.9,-2.2 0.1,-3.3 5,-5.2 7.5,-11.4 7.5,-18.4 -0.1,-6.6 -2.4,-12.4 -6.9,-17.2 -1,-1.1 -1.2,-1.8 -1,-2.5 0.2,-0.9 0.7,-1.4 1.5,-1.7 0.3,-0.1 0.5,-0.1 0.8,-0.1 0.3,0 0.8,0.1 1.4,0.6 4,4 6.7,8.8 8,14.4 0.2,0.9 0.4,1.9 0.5,2.9 0.1,0.4 0.1,0.8 0.2,1.2 v 5.3 c -0.1,0.5 -0.2,0.9 -0.3,1.4 -0.2,1.2 -0.4,2.3 -0.7,3.4 -1.3,5.2 -3.9,9.9 -7.8,13.9 -0.6,0.4 -1.2,0.7 -1.8,0.7 z"
   id="path432"
   style="fill:#b5b5b5;opacity:0.5" /><path
   class="st40"
   d="m 42.65,32.05 c -0.1,1.8 -0.7,3.3 -1.9,4.5 -0.9,0.9 -2.2,0.9 -3.1,0 -0.8,-0.8 -0.9,-2.1 -0.1,-3 1,-1.1 1,-2 0,-3.1 -0.8,-0.9 -0.8,-2.3 0.1,-3.1 0.9,-0.8 2.2,-0.8 3.1,0.1 1.3,1.3 1.9,2.8 1.9,4.6 z"
   id="path433"
   style="fill:#b5b5b5;opacity:0.5" /><g
   id="g434"
   transform="translate(-152.45,75.95)"
   style="fill:#b6b6b5;fill-opacity:1;opacity:0.5">&#10;	<path
   class="st40"
   d="m 178,-19.3 c -1.7,0 -3.3,-0.5 -4.7,-1.5 l -6.6,-4.8 c -0.7,-0.5 -1.5,-0.8 -2.4,-0.8 h -0.2 c -4.5,0 -8.1,-3.6 -8.1,-8.1 v -18.1 c 0,-4.5 3.6,-8.1 8.1,-8.1 1,0 1.9,-0.3 2.6,-0.9 l 6.1,-5.1 c 2.4,-2 5.7,-2.4 8.6,-1.1 2.9,1.3 4.7,4.1 4.7,7.3 v 33.1 c 0,3.1 -1.7,5.8 -4.4,7.2 -1.2,0.6 -2.4,0.9 -3.7,0.9 z m 0,-45.3 c -0.9,0 -1.8,0.3 -2.6,1 l -6.1,5.1 c -1.4,1.2 -3.3,1.9 -5.2,1.9 -2.3,0 -4.1,1.8 -4.1,4.1 v 18.1 c 0,2.3 1.8,4.1 4.1,4.1 h 0.2 c 1.7,0 3.4,0.5 4.7,1.5 l 6.6,4.8 c 1.3,0.9 2.9,1 4.3,0.3 1.4,-0.7 2.2,-2.1 2.2,-3.6 v -33.1 c 0,-1.6 -0.9,-3 -2.3,-3.7 -0.6,-0.4 -1.2,-0.5 -1.8,-0.5 z"
   id="path434"
   style="fill:#b6b6b5;fill-opacity:1" />&#10;</g><g
   id="g436"
   transform="translate(-152.45,75.95)"
   style="fill:#000000;fill-opacity:1">&#10;	<path
   class="st0"
   d="m 207.1,-19.2 c -0.5,0 -1,-0.2 -1.4,-0.6 l -47,-45.5 c -0.8,-0.8 -0.8,-2 0,-2.8 0.8,-0.8 2,-0.8 2.8,0 l 47,45.5 c 0.8,0.8 0.8,2 0,2.8 -0.4,0.4 -0.9,0.6 -1.4,0.6 z"
   id="path436"
   style="fill:#000000;fill-opacity:1" />&#10;</g></svg>
