<svg width="16" height="16" viewBox="0 0 16 16" fill="none" xmlns="http://www.w3.org/2000/svg">
<path d="M13.3333 13.3333C13.687 13.3333 14.0261 13.1929 14.2762 12.9428C14.5262 12.6928 14.6667 12.3536 14.6667 12V5.33333C14.6667 4.97971 14.5262 4.64057 14.2762 4.39052C14.0261 4.14048 13.687 4 13.3333 4H8.06668C7.84369 4.00219 7.62371 3.94841 7.42688 3.84359C7.23005 3.73877 7.06265 3.58625 6.94001 3.4L6.40001 2.6C6.2786 2.41565 6.11333 2.26432 5.91901 2.1596C5.72469 2.05488 5.50742 2.00004 5.28668 2H2.66668C2.31305 2 1.97392 2.14048 1.72387 2.39052C1.47382 2.64057 1.33334 2.97971 1.33334 3.33333V12C1.33334 12.3536 1.47382 12.6928 1.72387 12.9428C1.97392 13.1929 2.31305 13.3333 2.66668 13.3333H13.3333Z" stroke="white" stroke-width="1.33333" stroke-linecap="round" stroke-linejoin="round"/>
</svg>
